<?xml version="1.0" standalone="no"?>
<!DOCTYPE svg PUBLIC "-//W3C//DTD SVG 1.1//EN" "http://www.w3.org/Graphics/SVG/1.1/DTD/svg11.dtd" >
<!--
2013-9-30: Created.
-->
<svg>
<metadata>
Created by iconfont
</metadata>
<defs>

<font id="qmfont" horiz-adv-x="1024" >
  <font-face
    font-family="qmfont"
    font-weight="500"
    font-stretch="normal"
    units-per-em="1024"
    ascent="896"
    descent="-128"
  />
    <missing-glyph />
    
    <glyph glyph-name="shoukuanma1" unicode="&#59686;" d="M124.93076943 797.89615372h332.30769171c33.81923057-3.28846113 25.65-62.03076943 25.65-100.21153799v-181.73076944c0-39.46153887 7.54615371-87.88846114-18.93461485-99.10384629-17.27307685-7.26923057-63.55384628-2.18076943-85.84615371-2.18076943h-176.1923083c-40.77692315 0-96.36923057-9.58846113-102.63461485 25.33846201V772.55769258c4.56923057 12.39230742 12.56538428 21.39230742 25.65 25.33846113M170.69230742 723.02307685v-236.76923056h239.74615372V726.31153887H171.76538427c-1.28076943-0.17307685-1.21153887-1.73076943-1.10769169-3.28846202m400.32692314 74.87307687h332.34230743c13.56923057-4.95 22.84615372-14.12307685 25.61538427-29.73461485v-323.75769258c-3.01153886-13.46538427-10.14230742-24.92307685-23.4-28.62692314-21.66923057-6.02307685-57.70384629-1.10769258-83.63076855-1.10769258h-170.61923145c-25.71923057 0-63.86538428-5.36538428-84.73846113 1.10769258-29.49230742 9.10384628-21.18461573 65.94230742-21.18461572 105.71538427v169.61538516c0 45.86538427-10.21153886 100.38461573 25.61538515 106.78846113m45.72692315-74.87307686v-236.76923056h239.78076855V726.31153887h-238.63846113c-1.31538427-0.17307685-1.21153887-1.73076943-1.14230743-3.28846202M279.93846113 653.61923057c33.40384628 6.23076943 59.64230742-16.02692315 60.23076944-46.24615372 0.72692315-39.80769258-40.43076943-61.68461573-72.48461485-45.13846113-36.69230742 18.93461573-34.26923057 82.73076943 12.25384541 91.38461485m446.08846202 0c78.64615372 14.53846113 77.12307685-108.48461572 0-95.78076943-49.11923057 8.06538427-50.67692315 86.43461573 0 95.78076943m-271.0038463-686.07692315H126.03846113c-13.63846113 4.15384629-22.84615372 12.66923057-26.7576917 26.44615372v331.47692314c3.25384629 9.69230742 10.73076943 21.01153887 22.29230742 24.23076944 21.84230742 6.05769258 57.49615371 1.10769258 83.66538429 1.10769257h170.61923144c25.2 0 61.89230742 5.53846114 84.73846114-1.10769257 30.91153886-9 22.29230742-64.93846113 22.29230742-104.60769258v-175.11923057c0-42.81923057 9.34615371-98.58461573-27.86538429-102.42692315M170.69230742 275.89615371v-236.76923056h239.74615372v240.09230742H171.76538427c-1.28076943-0.20769258-1.21153887-1.73076943-1.10769169-3.32307685m758.31923057 45.17307685v-92.52692315c-2.59615372-31.18846113-0.34615371-67.15384628-1.10769258-100.21153799h-237.53076944v53.96538429c-22.32692315 2.56153886-49.46538428 0.34615371-73.62692227 1.10769257-2.59615372-69.75-0.34615371-144.27692315-1.10769258-215.86153887h-43.47692313c-37.38461572 7.40769258-26.75769258 62.82692315-26.75769258 106.82307686v170.72307685c0 25.65-5.26153887 64.14230742 1.10769258 84.80769258 7.61538427 24.61153887 40.60384628 20.90769258 73.59230742 20.90769257h161.68846201v-146.45769257h74.73461484c0.72692315 48.46153886-1.48846113 99.83076943 1.10769258 146.42307686 35.96538428 2.11153886 69.23076943 1.59230742 71.37692315-29.7M285.51153887 207.63461572999995a49.08461573 49.08461573 0 0 0 51.29999999-67.1538463c-19.17692315-51.64615371-110.83846114-32.22692315-93.66923144 33.02307686 4.74230742 18 18.45 31.5 42.36923144 34.13076943m485.10000001-240.0923083h-80.30769258c0.76153886 28.28076943-1.45384629 59.50384628 1.14230743 85.91538516h79.16538515v-85.91538516m158.36538428 85.91538516v-56.18076943c-3.11538428-15.64615372-12.35769258-25.2-26.75769258-29.73461573H845.34615371c0.72692315 28.28076943-1.48846113 59.46923057 1.10769258 85.91538516h82.52307686"  horiz-adv-x="1024" />

    
    <glyph glyph-name="tuijian" unicode="&#59685;" d="M511.968 864C777.04 864 992 649.088 992 384c0-265.088-214.96-480-480.032-480C246.96-96 32 118.912 32 384 32 649.088 246.96 864 511.968 864zM330.24 325.6c-1.616-7.008-2.336-14.432-3.6-21.68l-21.6-130.48c-2.752-19.424-7.488-31.792 4.864-49.92 1.68-2.48 2.752-3.664 4.912-5.776 2.16-2.192 3.248-3.072 5.696-4.96 6.304-4.704 15.36-8.416 23.936-8.416 12.48 0 18.784 1.712 28.864 7.488 1.504 0.944 3.2 1.824 4.864 2.752 7.92 4.896 16.56 8.672 24.592 13.488 9.84 5.888 19.92 10.848 29.888 16.256 1.792 1.056 2.992 1.76 4.912 2.768 1.92 0.944 2.992 1.712 4.864 2.64l64.384 35.216c6.72 3.648 4.8 3.424 14.88-2.352l54.576-29.856c1.632-0.88 3.136-1.824 4.928-2.64l12.24-6.832c0.96-0.592 1.616-0.832 2.64-1.424 1.136-0.464 1.2-0.64 2.16-1.28 1.152-0.544 1.68-0.704 2.768-1.312l24.704-13.424c1.68-1.04 3.36-2.048 5.04-3.04l19.92-10.784c16.32-8.896 28.8-10.48 45.968-3.36a43.2 43.2 0 0 1 6.832 3.936c6.24 4.656 11.344 10.24 14.768 17.6 1.2 2.496 2.032 5.44 2.752 7.904 2.288 7.952 1.2 15.904-0.128 23.792l-5.2 32.912c-0.56 3.184-1.152 7.056-1.872 10.72-0.608 3.296-1.072 7.184-1.792 11.008-3.36 17.952-5.888 36.272-8.88 54.16-2.4 14.56-5.408 29.328-7.44 43.808-0.48 3.888-1.44 7.36-1.68 11.072 3.424 2.304 13.92 13.728 17.648 17.44l6.352 6.464c8.928 10.08 18.96 19.312 28.432 28.848 1.68 1.664 2.944 2.88 4.384 4.48 0.064 0.064 0.176 0.128 0.24 0.24l2.944 3.184c8.928 9.824 19.248 19.072 28.432 28.608l2.816 2.88c0.128 0.064 0.304 0.368 0.48 0.416l4.256 4.592c7.088 7.072 23.888 22.56 28.32 29.088 0.608 0.96 1.088 1.712 1.76 2.72 15.408 23.888 3.76 57.28-23.52 66.4-6.608 2.24-35.04 6.48-44.48 7.552l-75.28 11.296a715.408 715.408 0 0 1-14.944 2.368l-30.176 4.528c-7.984 1.36-6.544 0-10.08 7.248l-22.272 46.976c-2.032 4-3.52 7.776-5.632 11.776l-11.04 23.552c-5.04 11.952-11.824 23.2-16.8 35.216l-5.52 11.776c-3.6 7.296-6.832 16.368-12 22.672a41.92 41.92 0 0 1-8.752 8.656c-20.4 15.312-48.72 10.72-64.08-9.184-3.84-4.896-17.872-34.752-21.904-43.808-4.8-10.72-13.024-26.272-17.088-35.808-3.84-9.424-8.88-17.84-12.72-27.2l-21.056-44.272c-4.4-8.368 0-6.128-17.952-8.72l-57.36-8.768c-4.128-0.64-7.312-1.008-11.264-1.6l-45.968-6.944c-2.272-0.352-3.6-0.704-5.696-0.944-9.664-1.36-30.88-3.648-38.816-7.072a46.512 46.512 0 0 1-23.936-22.128c-0.896-1.76-1.2-2.832-1.92-4.72-5.344-13.296-2.4-29.968 5.936-41.328 5.28-7.232 18.848-19.728 26.032-26.848l9.552-10.016c1.264-1.168 2.08-2.064 3.296-3.296l23.632-23.904c10.56-11.536 24-22.912 33.728-34.272 0.64-0.816 1.024-1.184 1.68-1.824 4.56-4.416 8.64-8.64 13.12-13.12 3.312-3.296 10.032-10.96 13.44-13.2z"  horiz-adv-x="1024" />

    
    <glyph glyph-name="shangquan" unicode="&#59684;" d="M151.04 90.624c14.848-5.12 36.352-11.776 66.56-18.432 58.368-12.8 129.536-33.792 282.624-33.792 22.528 0 43.52 0.512 63.488 1.536l1.024 734.72c0 29.696-24.064 54.272-54.272 54.272H206.336c-30.208-2.56-53.76-25.6-55.808-55.808v-447.488h0.512v-235.008z m118.272 491.52c2.56 16.384 16.384 32.256 32.768 32.256h104.448c17.408 0 30.72-12.288 32.256-28.672 2.048-19.456-14.336-36.352-34.304-36.352H302.08c-18.432 0-32.768 13.824-32.768 32.768 0-0.512 0-0.512 0 0z m0-128c2.56 18.432 16.384 32.256 32.768 32.256h104.448c17.408 0 30.72-12.288 32.256-28.672 2.048-19.456-14.336-36.352-34.304-36.352H302.08c-18.432 0-32.768 13.824-32.768 32.768 0-0.512 0-0.512 0 0z m0-125.952c2.56 18.432 16.384 32.256 32.768 32.256h104.448c17.408 0 30.72-12.288 32.256-28.672 2.048-19.456-14.336-36.352-34.304-36.352H302.08c-18.432 0-32.768 13.824-32.768 32.768zM872.96 324.608V459.776c0 20.48-16.896 37.376-37.376 37.376l-182.272 0.512c-20.992 0-37.888-16.896-37.888-37.376 0-89.6-0.512-315.392-0.512-417.792 72.704 5.632 140.288 17.92 175.616 25.088 57.856 11.776 77.824 20.992 82.432 24.064m-90.112 54.784H706.56c-22.528 3.072-45.056 28.672-24.064 52.224 7.68 8.704 18.944 13.312 30.72 13.312h71.68c17.408 0 30.72-12.288 32.256-28.672 2.048-19.968-14.336-36.864-34.304-36.864z m0 128H706.56c-17.92 0-35.84 16.896-32.256 38.4 2.56 15.872 17.408 27.136 33.792 27.136h76.8c17.408 0 30.72-12.288 32.256-28.672 2.048-19.968-14.336-36.864-34.304-36.864zM916.992 215.04v-57.344c34.816-16.896 52.736-33.792 52.736-47.104 0-39.424-157.184-112.128-457.728-112.128S54.272 71.68 54.272 110.592c0 13.312 17.92 30.208 52.736 47.104V215.04C42.496 188.416 1.536 153.6 1.536 110.592c0-108.032 256.512-164.864 509.952-164.864s509.952 56.832 509.952 164.864c0.512 43.52-39.936 78.336-104.448 104.448z"  horiz-adv-x="1024" />

    
    <glyph glyph-name="remen" unicode="&#59683;" d="M206.9 547.3c53.2 60.2 95.8 127.2 90.6 200.9-0.5 7.5-0.4 15-0.9 22.4-0.3 3.6 2.4 6.7 6.1 7 2.2 0.1 4.3 0.3 6.4 0.3 160.2 0 290.1-124 290.1-276.9 0-11.5-0.8-22.7-2.3-33.8-0.8-6.1 6.4-9.7 10.8-5.4 46.2 44.6 76.7 103.9 82.8 170.2 0.4 4.6 5.5 7.3 9.7 4.9 106.4-62.5 177.5-174.3 177.5-302.3 0-146.3-92.9-271.9-225.5-326-24-9.8-50.7-11.2-75.7-4-57.3 16.4-111.5 46.7-156.9 90.8-17 16.6-31.8 34.5-44.9 53.2-3 4.4-9.7 3.4-11.3-1.5-13.5-39.1-19.9-79.9-19.3-120.8 0.1-4.8-4.9-8-9.3-5.9-118.5 59.3-199.7 177.5-199.7 314.2 0 76.2 24.1 149.5 67 207.3"  horiz-adv-x="1024" />

    
    <glyph glyph-name="shuaxin2x" unicode="&#59682;" d="M515.952-128c-8.912 0-18.448 7.12-18.448 20.32v55.712a433.76 433.76 0 0 0-293.888 127.584A434.752 434.752 0 0 0 75.776 384a434.224 434.224 0 0 0 118.848 299.12l9.392 10 61.152-51.072-10.88-11.2A354.96 354.96 0 0 1 155.232 384c0.256-191.312 151.136-348.48 342.272-356.56v55.36c0 13.36 9.328 20.32 18.4 20.32 4.416 0 8.912-1.536 12.88-4.544l124.624-93.36c5.648-4.144 9.008-10.72 9.056-17.712a21.952 21.952 0 0 0-9.056-17.6l-124.64-93.28c-3.632-2.912-8.144-4.528-12.8-4.624z m220.336 233.888l12.624 11.2a357.376 357.376 0 0 1 120 266.976c-0.24 191.328-151.12 348.528-342.288 356.576v-55.312c0-13.344-9.248-20.4-18.32-20.4a21.28 21.28 0 0 0-12.96 4.64l-124.544 93.28a21.872 21.872 0 0 0-9.12 17.584c0.064 6.976 3.408 13.52 9.056 17.648L495.36 891.52c3.616 2.832 8.08 4.416 12.688 4.496 9.056 0 18.512-7.04 18.512-20.32v-55.648a434.016 434.016 0 0 0 293.888-127.584A434.352 434.352 0 0 0 948.224 384a434.816 434.816 0 0 0-140.928-321.12l-9.472-8.672-61.536 51.68z"  horiz-adv-x="1024" />

    
    <glyph glyph-name="lajitong" unicode="&#59681;" d="M621.568 91.648c-19.968 0-36.352 16.384-36.352 36.352V530.432c0 19.968 16.384 36.352 36.352 36.352s36.352-16.384 36.352-36.352V128c0.512-20.48-15.872-36.352-36.352-36.352z m-219.136 0c-20.48 0-36.352 16.384-36.352 36.352V530.432c0 19.968 16.384 36.352 36.352 36.352 19.968 0 36.352-16.384 36.352-36.352V128c0-20.48-16.384-36.352-36.352-36.352zM987.648 713.216h-182.784V786.432c0 60.416-48.64 109.568-109.056 109.568H329.216C268.8 896 219.648 846.848 219.648 786.432v-73.216H36.352c-20.48 0-36.352-16.384-36.352-36.352 0-20.48 16.384-36.864 36.352-36.864h950.784c19.968 0 36.352 16.384 36.352 36.352 0.512 20.48-15.872 36.864-35.84 36.864zM292.352 786.432c0 19.968 16.384 36.352 36.352 36.352h366.592c19.968 0 35.84-15.872 35.84-36.352v-73.216H292.352V786.432zM768-128H256c-60.416 0-109.568 49.152-109.568 109.568V530.432c0 19.968 16.384 36.352 36.352 36.352 19.968 0 36.352-16.384 36.352-36.352v-548.864c0-19.968 16.384-36.352 36.352-36.352h512c19.968 0 36.352 16.384 36.352 36.352v547.84c0 19.968 16.384 36.352 36.352 36.352s36.352-16.384 36.352-36.352v-547.84c1.536-60.416-48.128-109.568-108.544-109.568z"  horiz-adv-x="1024" />

    
    <glyph glyph-name="qiabao" unicode="&#59674;" d="M806.1 525H217.2c-13.8 0-25 11.2-25 25s11.2 25 25 25h588.9c13.8 0 25-11.2 25-25s-11.2-25-25-25zM355.9 192.60000000000002c-6.7 0-13.3 2.6-18.2 7.9l-50.4 53.7-50.9-53.8c-9.5-10-25.3-10.5-35.3-1-10 9.5-10.5 25.3-1 35.3l58 61.3c7.6 8 18.2 12.6 29.2 12.6h0.1c11 0 21.7-4.7 29.2-12.7l57.5-61.3c9.4-10.1 8.9-25.9-1.1-35.3-4.8-4.5-11-6.7-17.1-6.7zM878 39.299999999999955H146.5c-41.4 0-75 33.6-75 75V654.2c0 41.4 33.6 75 75 75H878c41.4 0 75-33.6 75-75v-539.9c0-41.4-33.6-75-75-75zM146.5 679.2c-13.8 0-25-11.2-25-25v-539.9c0-13.8 11.2-25 25-25H878c13.8 0 25 11.2 25 25V654.2c0 13.8-11.2 25-25 25H146.5z"  horiz-adv-x="1024" />

    
    <glyph glyph-name="lipinka" unicode="&#59676;" d="M767.4 17.4H173.7c-60 0-108.8 48.8-108.8 108.8V571.5c0 60 48.8 108.8 108.8 108.8h96.7c13.3 0 24-10.7 24-24s-10.7-24-24-24h-96.7c-33.5 0-60.8-27.3-60.8-60.8v-445.3c0-33.5 27.3-60.8 60.8-60.8h593.7c80.3 0 145.6 65.3 145.6 145.6 0 13.3 10.7 24 24 24s24-10.7 24-24c0-106.8-86.8-193.6-193.6-193.6z m84.1 219h-593c-13.3 0-24 10.7-24 24s10.7 24 24 24h593c13.8 0 25.2 1.9 34.2 5.6h0.1c24.2 10.1 27.3 34.9 27.3 55.3V571.5c0 33.5-27.3 60.8-60.8 60.8h-88.6c-13.3 0-24 10.7-24 24s10.7 24 24 24h88.6c60 0 108.8-48.8 108.8-108.8v-226.1c0-23-4.1-42.7-12.3-58.7-9.6-18.8-24.6-32.6-44.5-40.9h-0.1c-14.8-6.2-32.6-9.4-52.7-9.4zM385.1 361.5c-9.8 0-19.4 3.5-27.9 10.3-10.3 8.3-12 23.4-3.7 33.7 7.7 9.7 21.4 11.8 31.6 5.3 2.7 2.7 6.2 7.7 7.8 11.2 0.2 0.5 0.5 1 0.7 1.4l106 190.8c4.2 7.6 12.3 12.3 21 12.3s16.7-4.7 21-12.3l106-190.8c0.2-0.3 0.2-0.4 0.4-0.7 2.3-4.3 6.1-9.2 8.8-11.5 10.4 6.2 24 3.6 31.4-6.3 8-10.6 5.8-25.6-4.8-33.6-10.8-8.1-23.5-11-35.9-8.1-24.2 5.6-38.8 31.1-42 37.1l-84.9 152.8-84.7-152.5c-3.4-7-17.4-32.5-41.5-38.1-3-0.7-6.1-1-9.3-1zM612.1 541c-62.9 0-114 51.1-114 114s51.1 114 114 114 114-51.1 114-114c0-62.8-51.2-114-114-114z m0 180c-36.4 0-66-29.6-66-66s29.6-66 66-66 66 29.6 66 66-29.6 66-66 66zM423.5 541c-62.9 0-114 51.1-114 114s51.1 114 114 114 114-51.1 114-114-51.1-114-114-114z m0 180c-36.4 0-66-29.6-66-66s29.6-66 66-66 66 29.6 66 66-29.6 66-66 66z"  horiz-adv-x="1024" />

    
    <glyph glyph-name="dizhiguanlix" unicode="&#59677;" d="M528-32c-56.32 0-336 429.44-336 592C192 745.568 342.432 896 528 896s336-150.432 336-336c0-162.56-279.68-592-336-592z m0 864c-150.144-0.176-271.824-121.856-272-272 0-131.52 206.08-432 272-514.24C593.92 128 800 428.48 800 560c-0.176 150.144-121.856 271.824-272 272zM528 416a144 144 0 1 0 0 288 144 144 0 0 0 0-288z m0 224a80 80 0 1 1 0-160 80 80 0 0 1 0 160z m-16-768C256-128 0-62.08 0 64c0 71.04 83.2 128 234.24 163.52l14.08-62.4C121.6 136 64 92.48 64 64c0-52.16 174.4-128 448-128s448 75.84 448 128c0 28.48-58.56 72.64-186.88 101.44l14.08 64C939.84 192 1024 135.36 1024 64c0-126.08-256-192-512-192z"  horiz-adv-x="1024" />

    
    <glyph glyph-name="yuyuex" unicode="&#59678;" d="M512-91.856c-265.04 0-481.888 216.848-481.888 481.872C30.112 655.056 246.96 871.904 512 871.904c265.04 0 481.888-216.848 481.888-481.888C993.888 124.992 777.04-91.84 512-91.84z m0 903.52c-231.904 0-421.648-189.728-421.648-421.648 0-231.904 189.744-421.632 421.648-421.632 231.904 0 421.648 189.728 421.648 421.632C933.648 621.936 743.904 811.68 512 811.68z m225.888-493.92H460.8c-18.08 0-30.112 12.048-30.112 30.112V646.016c0 18.08 12.048 30.128 30.112 30.128 18.08 0 30.112-12.048 30.112-30.128v-268.032h246.976c18.08 0 30.112-12.048 30.112-30.128 0-15.056-12.048-30.112-30.112-30.112z"  horiz-adv-x="1024" />

    
    <glyph glyph-name="shouhoux" unicode="&#59679;" d="M934.4 640C864 761.6 755.2 844.8 620.8 876.8c-185.6 51.2-384-6.4-512-153.6L19.2 780.8l6.4-224c0-19.2 25.6-32 38.4-19.2l192 115.2-89.6 44.8c115.2 121.6 288 166.4 448 128 115.2-32 217.6-108.8 275.2-211.2 64-108.8 76.8-230.4 44.8-345.6-32-115.2-108.8-217.6-211.2-275.2-108.8-64-230.4-76.8-345.6-44.8C256-19.2 160 57.6 96 166.4c-6.4 12.8-25.6 19.2-38.4 12.8-12.8-6.4-19.2-25.6-12.8-38.4C115.2 19.2 224-64 358.4-102.4c44.8-19.2 89.6-25.6 134.4-25.6 89.6 0 179.2 25.6 256 70.4 121.6 70.4 204.8 179.2 236.8 313.6 38.4 128 19.2 262.4-51.2 384zM665.6 179.2v134.4H339.2v-140.8h64V192H608v-19.2h57.6v6.4z m-262.4 57.6v32H608v-32H403.2z m-25.6 358.4C352 550.4 326.4 512 288 480c6.4-19.2 19.2-38.4 25.6-64l25.6 25.6v-115.2h57.6v6.4h300.8v38.4h-147.2v25.6H672v38.4h-121.6v19.2H672v38.4h-121.6V512h140.8v38.4h-128c-6.4 19.2-19.2 32-25.6 51.2l-57.6-12.8c6.4-12.8 12.8-25.6 12.8-38.4H416c6.4 6.4 12.8 19.2 12.8 25.6l-51.2 19.2z m115.2-224h-96v25.6h102.4v-25.6h-6.4z m0 64h-96v19.2h102.4v-19.2h-6.4z m0 76.8v-25.6h-96V512h96z"  horiz-adv-x="1024" />

    
    <glyph glyph-name="dingdanx" unicode="&#59680;" d="M851.84 830.816h-129.632V863.2a32.4 32.4 0 1 1-64.8 0v-32.4H430.592V863.2a32.4 32.4 0 1 1-64.8 0v-32.4H236.16a97.216 97.216 0 0 1-97.152-97.232v-712.768a97.184 97.184 0 0 1 97.152-97.232h615.712a97.216 97.216 0 0 1 97.152 97.232V733.584a97.184 97.184 0 0 1-97.152 97.232zM884.224 20.8c0-17.92-14.528-32.432-32.352-32.432H236.144a32.384 32.384 0 0 0-32.352 32.432V733.584c0 17.92 14.528 32.432 32.352 32.432h129.648v-32.4a32.4 32.4 0 0 1 64.8 0V766.016h226.816v-32.4a32.4 32.4 0 0 1 64.8 0V766.016h129.648c17.872 0 32.352-14.496 32.352-32.432v-712.768z m-97.2 534.592H300.992a32.4 32.4 0 0 1 0-64.8h486.016a32.4 32.4 0 0 1 0 64.8z m0-162.016H300.992a32.4 32.4 0 0 1 0-64.8h486.016a32.4 32.4 0 0 1 0 64.8z m0-162H300.992a32.4 32.4 0 0 1 0-64.8h486.016a32.4 32.4 0 0 1 0 64.8z"  horiz-adv-x="1024" />

    
    <glyph glyph-name="erweima11" unicode="&#59675;" d="M100.00805774 525.5772808500001l175.48185487 0c56.3021403 0 101.91920355 45.61706325 101.91920355 101.91920356L377.40911616 802.97833927C377.40911616 859.28047957 331.79205291 904.89754283 275.9008768 904.89754283L100.00805774 904.89754283c-56.3021403 0-101.91920355-45.61706325-101.91920355-101.91920356l0-175.48185486C-1.91114581 571.19434411 44.11688163 525.5772808500001 100.00805774 525.5772808500001zM84.80236999 802.97833927c0 8.21929074 6.98639701 15.20568775 15.20568775 15.20568775l175.48185487 0c8.21929074 0 15.20568775-6.98639701 15.20568774-15.20568775l0-175.48185486c0-8.21929074-6.98639701-15.20568775-15.20568774-15.20568775L100.00805774 612.2907966600001c-8.21929074 0-15.20568775 6.98639701-15.20568775 15.20568775L84.80236999 802.97833927zM275.9008768 251.46393940999997L100.00805774 251.46393940999997c-56.3021403 0-101.91920355-45.61706325-101.91920355-101.91920355l0-175.48185487c0-56.3021403 45.61706325-101.91920355 101.91920355-101.91920355l175.48185487 0c56.3021403 0 101.91920355 45.61706325 101.91920355 101.91920355l0 175.48185487C377.40911616 205.84687615999997 331.79205291 251.46393940999997 275.9008768 251.46393940999997zM290.69560035-25.937119009999947c0-8.21929074-6.98639701-15.20568775-15.20568774-15.20568774L100.00805774-41.14280674999998c-8.21929074 0-15.20568775 6.98639701-15.20568775 15.20568774l0 175.48185487c0 8.21929074 6.98639701 15.20568775 15.20568775 15.20568775l175.48185487 0c8.21929074 0 15.20568775-6.98639701 15.20568774-15.20568775L290.69560035-25.937119009999947zM929.33448135 904.89754283l-175.48185486 0c-56.3021403 0-101.91920355-45.61706325-101.91920356-101.91920356l0-175.48185486c0-56.3021403 45.61706325-101.91920355 101.91920356-101.91920356l175.48185486 0c56.3021403 0 101.91920355 45.61706325 101.91920356 101.91920356L1031.25368491 802.97833927C1030.84271957 859.28047957 985.22565746 904.89754283 929.33448135 904.89754283zM944.12920377 627.49648441c0-8.21929074-6.98639701-15.20568775-15.20568775-15.20568775l-175.48185487 0c-8.21929074 0-15.20568775 6.98639701-15.20568774 15.20568775L738.23597454 802.97833927c0 8.21929074 6.98639701 15.20568775 15.20568775 15.20568775l175.48185486 0c8.21929074 0 15.20568775-6.98639701 15.20568776-15.20568775L944.12920377 627.49648441zM696.31759246 338.17745521999996c22.60304896 0 41.09645255 18.08243939 40.68548836 41.09645255 0 22.60304896-18.08243939 41.09645255-41.09645255 41.09645255l-143.42662144 0L552.48000683 581.46845696c0 22.60304896-18.08243939 41.09645255-41.09645256 40.68548835-22.60304896 0-41.09645255-18.08243939-41.09645254-41.09645254L470.28710059 419.95939613 39.18530787 419.95939613c-22.60304896 0-41.09645255-18.08243939-41.09645254-41.09645256 0-22.60304896 18.08243939-41.09645255 41.09645254-41.09645255l431.92372224 0 0-192.33140053c0-22.60304896 18.08243939-41.09645255 41.09645256-41.09645255s41.09645255 18.08243939 41.09645255 41.09645255l0 192.33140053L696.31759246 337.76648989zM990.15723122 338.17745521999996c22.60304896 0 41.09645255 18.08243939 40.68548835 41.09645255 0 22.60304896-18.08243939 41.09645255-41.09645255 41.09645255l-90.82316117 0c-22.60304896 0-41.09645255-18.08243939-41.09645255-41.09645255 0-22.60304896 18.08243939-41.09645255 41.09645255-41.09645255L990.15723122 338.17745521999996zM511.79451733 776.67660914c22.60304896 0 41.09645255 18.08243939 41.09645256 41.09645255L552.89097102 865.44494819c0 22.60304896-18.08243939 41.09645255-41.09645255 40.68548836-22.60304896 0-41.09645255-18.08243939-41.09645255-41.09645255l0-47.67188537C471.10902898 795.17001273 489.19146837 776.67660914 511.79451733 776.67660914zM511.79451733 0.3646111299999575c-22.60304896 0-41.09645255-18.08243939-41.09645255-41.09645255l0-47.67188537c0-22.60304896 18.08243939-41.09645255 41.09645255-41.09645255s41.09645255 18.08243939 41.09645256 41.09645255l0 48.08284956C552.89097102-17.71782827000004 534.39756743 0.3646111299999575 511.79451733 0.3646111299999575zM945.36209749-25.115190610000013c0-8.21929074-6.98639701-14.79472355-14.79472355-14.79472356l-43.97320533 0 0-85.48062208 43.97320533 0c55.48021191 0 100.68630983 45.20609792 100.68630983 100.68630983l0 49.72670863-85.48062208 0L945.77306169-25.115190610000013zM930.15640974 248.58718663000002l-173.42703161 0c-55.48021191 0-100.68630983-45.20609792-100.68630983-100.68630983l0-173.42703161c0-55.48021191 45.20609792-100.68630983 100.68630983-100.68630983l43.97320534 0L800.70258233-40.320878369999946l-43.97320534 0c-8.21929074 0-14.79472355 6.98639701-14.79472355 14.79472356l0 173.42703161c0 8.21929074 6.98639701 14.79472355 14.79472355 14.79472355l173.42703162 0c8.21929074 0 14.79472355-6.98639701 14.79472355-14.79472355l0-38.21970091L1030.84271957 109.68117588999996l0 38.21970091C1030.84271957 203.38108870999997 985.63662165 248.58718663000002 930.15640974 248.58718663000002z"  horiz-adv-x="1024" />

    
    <glyph glyph-name="xiangyou1" unicode="&#59670;" d="M834.41195029 357.94347282c0.66360492 1.28490043 1.73917981 2.36047532 2.32039125 3.68768515 11.39263325 23.69605185 7.66263611 52.69203918-12.51051754 71.74953516L366.92876345 865.89990032c-24.9386416 23.57134768-64.24946068 22.45346211-87.86311906-2.44509539-23.57134768-24.9386416-22.49354619-64.24946068 2.44509542-87.86311906l410.31738003-388.15340905L283.12521545-6.4738002999999935c-24.68923326-23.81852942-25.43523295-63.1315751-1.61447564-87.86311905 12.17871572-12.67530578 28.45931318-19.01518528 44.73991064-19.01518528 15.53459906 0 31.06919684 5.79875214 43.12320841 17.39848303l453.15109473 436.74579311c0.87070385 0.87070385 1.20027906 2.0709829 2.0709829 2.98176956 0.66360492 0.62129423 1.36729392 1.07780149 2.02867224 1.7391798C830.14528031 349.20303392000005 832.00916428 353.71911222999995 834.41195029 357.94347282z"  horiz-adv-x="1024" />

    
    <glyph glyph-name="xiaoxi2" unicode="&#59671;" d="M753.664-69.632H512c-123.904 0-240.64 49.152-326.656 139.264C99.328 159.744 54.272 277.504 59.392 401.408c9.216 235.52 199.68 425.984 435.2 435.2C618.496 841.728 737.28 796.672 826.368 710.656S965.632 508.928 965.632 384c0-120.832-47.104-234.496-133.12-320.512v-54.272c0-43.008-35.84-78.848-78.848-78.848zM512 755.712h-14.336c-192.512-7.168-349.184-163.84-356.352-356.352-4.096-102.4 32.768-199.68 103.424-272.384 70.656-73.728 165.888-113.664 267.264-113.664h238.592v52.224c0 20.48 8.192 40.96 23.552 56.32 70.656 70.656 109.568 163.84 109.568 263.168 0 101.376-39.936 196.608-113.664 267.264-70.656 66.56-161.792 103.424-258.048 103.424zM317.44 407.552m-51.2 0a51.2 51.2 0 1 1 102.4 0 51.2 51.2 0 1 1-102.4 0ZM512 407.552m-51.2 0a51.2 51.2 0 1 1 102.4 0 51.2 51.2 0 1 1-102.4 0ZM706.56 407.552m-51.2 0a51.2 51.2 0 1 1 102.4 0 51.2 51.2 0 1 1-102.4 0Z"  horiz-adv-x="1024" />

    
    <glyph glyph-name="beizhu1" unicode="&#59672;" d="M166.224 33.152l0.096-0.448 1.12 0.208c0.048 0 0.144-0.112 0.24-0.112 1.6 0 3.216 0.4 4.592 0.976L380.16 71.2v0.16a37.696 37.696 0 0 1 19.84 10.48L857.28 539.072c14.88 14.88 14.88 38.912 0 53.808l-147.904 147.888A37.984 37.984 0 0 1 682.432 752a37.76 37.76 0 0 1-26.864-11.232L198.24 283.52a37.792 37.792 0 0 1-10.448-19.584h-0.192l-27.68-193.776-0.4-0.048 0.256-1.072-2.88-19.872a11.616 11.616 0 0 1 9.328-16z m66.112 190.464l108.688-108.688-127.44-22.944 18.752 131.632z m450.08 473.408l131.072-131.04L387.072 139.52l-131.008 131.04 426.368 426.448z m236.576-695.04H169.008a24.992 24.992 0 1 1 0-49.984h749.984a24.992 24.992 0 1 1 0 50z"  horiz-adv-x="1024" />

    
    <glyph glyph-name="huiyuankabiaox" unicode="&#59673;" d="M687.744 512.8l-177.12-212.928-177.76 213.536h-91.328v-34.56c11.2 1.504 22.336-3.232 29.008-12.352v-3.696c38.88-49.984 191.936-224.016 235.136-277.712 43.2 54.304 195.632 228.336 235.136 278.944a30.864 30.864 0 0 0 29.008 12.352v39.488h-86.4s6.784 0 4.32-3.088z m260.432 53.056a104.304 104.304 0 0 0 0-134.528L735.872 200.512l-156.752-169.088a85.776 85.776 0 0 0-67.888-34.56 86.4 86.4 0 0 0-67.888 34.56l-151.808 163.52L73.68 430.72a101.216 101.216 0 0 0 0 132.688l100.592 111.712 83.312 90.72a88.256 88.256 0 0 0 69.12 33.92h370.288a91.344 91.344 0 0 0 66.656-33.312c34.56-34.56 109.232-117.248 154.288-166.016l30.24-34.56z"  horiz-adv-x="1024" />

    
    <glyph glyph-name="zhifubao1" unicode="&#59669;" d="M230.4 319.48800000000006c-12.288-9.728-25.088-24.064-28.672-41.984-5.12-24.576-1.024-55.296 22.528-79.872 28.672-29.184 72.704-37.376 91.648-38.912 51.2-3.584 105.984 22.016 147.456 50.688 16.384 11.264 44.032 34.304 70.144 69.632-59.392 30.72-133.632 64.512-212.48 61.44-40.448-1.536-69.632-9.728-90.624-20.992z m752.64-135.68c26.112 61.44 40.96 129.024 40.96 200.192C1024 666.112 794.112 896 512 896S0 666.112 0 384s229.888-512 512-512c170.496 0 321.536 83.968 414.72 211.968-88.064 43.52-232.96 115.712-322.56 159.232-42.496-48.64-105.472-97.28-176.64-118.272-44.544-13.312-84.992-18.432-126.976-9.728-41.984 8.704-72.704 28.16-90.624 47.616-9.216 10.24-19.456 22.528-27.136 37.888 0.512-1.024 1.024-2.048 1.024-3.072 0 0-4.608 7.68-7.68 19.456-1.536 6.144-3.072 11.776-3.584 17.92-0.512 4.096-0.512 8.704 0 12.8-0.512 7.68 0 15.872 1.536 24.064 4.096 20.48 12.8 44.032 35.328 65.536 49.152 48.128 114.688 50.688 148.992 50.176 50.176-0.512 138.24-22.528 211.968-48.64 20.48 43.52 33.792 90.112 41.984 121.344h-307.2v33.28h157.696v66.56H272.384V593.9200000000001h190.464V660.48c0 9.216 2.048 16.384 16.384 16.384h74.752V593.9200000000001h207.36v-33.28h-207.36v-66.56h165.888s-16.896-92.672-68.608-184.32c115.2-40.96 278.016-104.448 331.776-125.952z"  horiz-adv-x="1024" />

    
    <glyph glyph-name="gerenshezhi" unicode="&#59668;" d="M784.99259894 446.84360061l14.95677734-44.80748787c18.97876674-5.40454912 37.01488096-13.00862523 53.79412071-22.56085195l37.26625586 18.60170514 74.97241446-74.97241445-18.60170517-37.26625439c9.55222674-16.77924125 17.15630283-34.81535397 22.56085196-53.7941222l44.8074864-14.95677731v-106.07999652l-44.8074864-14.95677734c-5.97014151-20.98976292-14.70540242-40.84833959-25.70303292-59.19867129l21.74388613-43.4877708-74.97241446-74.97241446-48.45241571 24.25762917a245.71847697 245.71847697 0 0 0-42.60796086-16.59071044l-14.95677734-44.8074864h-106.07999652l-14.95677731 44.8074864a245.71847697 245.71847697 0 0 0-42.5451168 16.52786635l-48.51525979-24.19478508-74.97241445 74.97241446 21.74388465 43.4877708a246.09553857 246.09553857 0 0 0-25.70303146 59.19867129L449.15639939 111.00740106v106.07999652l44.80748787 14.95677731c5.40454912 18.97876674 13.00862523 37.01488096 22.56085195 53.7941222l-18.60170514 37.26625439 74.97241445 74.97241445 37.26625439-18.60170514c16.77924125 9.55222674 34.81535397 17.15630283 53.7941222 22.56085195l14.95677731 44.80748787h106.07999652zM449.15639939 384v-62.84360061a377.06160075 377.06160075 0 0 1-377.06160074-377.06160074H9.2511995a439.90520135 439.90520135 0 0 0 439.90519989 439.90520135z m307.30520461 0h-49.0180081l-11.31184804-34.06123077-15.96227393-4.58758331a187.02255396 187.02255396 0 0 1-33.18142086-12.94578113l-7.79260692-4.21052171-14.57971425-8.23251112-27.90255844 13.95127924-34.56398056-34.62682466 13.88843514-27.90255844-8.23251112-14.57971425c-5.84445481-10.30634993-10.68341152-21.17829374-14.51687164-32.42729768l-2.6394312-8.5467301-4.58758331-15.89943133-34.06123077-11.37469064v-49.0180081l34.06123077-11.37469212 4.58758331-15.96227393c3.58208519-12.63156362 8.54673012-24.88606564 14.70540242-36.44928856l4.83895672-8.5467301 8.86094761-14.83108915-16.96777203-33.80985735 34.68966727-34.62682318 36.88919427 18.41317435 14.07696593-7.03848224c7.7926069-3.89630272 15.83658723-7.2270145 24.06909836-10.05497651l8.3581993-2.51374451 15.89943133-4.58758182 11.37469064-34.06123223h49.0180081l11.37469212 34.06123223 15.96227393 4.58758182c8.35819931 2.38805631 16.59071043 5.34170651 24.50900404 8.86094765l7.855451 3.77061599 14.07696594 6.97563962 36.88919278-18.41317435 34.62682466 34.56398056-16.90492942 33.93554406 8.86094761 14.76824506c6.78710881 11.24900393 12.31734611 23.18928845 16.59071044 35.56947864l2.9536502 9.42654002 4.58758182 15.96227393 34.06123223 11.43753474v48.95516548l-34.06123223 11.31184804-4.58758182 15.96227393a187.02255396 187.02255396 0 0 1-12.94578262 33.18142086l-4.21052023 7.79260692-8.2325126 14.57971425 13.88843662 27.90255844-34.62682466 34.56398056-27.83971435-13.88843514-14.57971574 8.23251112a187.33677148 187.33677148 0 0 1-32.42729766 14.51687164l-8.48388601 2.6394312-15.96227393 4.58758331L756.461604 384z m-24.50900406-94.26540019a125.68719975 125.68719975 0 1 0 0-251.37440098 125.68719975 125.68719975 0 0 0 0 251.37440098z m0-62.84360061a62.84360061 62.84360061 0 1 1 0-125.68719977 62.84360061 62.84360061 0 0 1 0 125.68719977zM449.15639939 886.7488005a219.95259994 219.95259994 0 1 0 0-439.90519989 219.95259994 219.95259994 0 0 0 0 439.90519989z m0-62.84359915a157.1090008 157.1090008 0 1 1 0-314.2180016 157.1090008 157.1090008 0 0 1 0 314.2180016z"  horiz-adv-x="1024" />

    
    <glyph glyph-name="shou1" unicode="&#59667;" d="M668.59637475 34.71716307999998a19.82482886 19.82482886 0 0 0-22.54394531 0.59326173c-0.494385 0.39550758-23.43383789 15.94390869-106.91070581 59.22729516-46.27441406 23.97766089-87.01171852 51.66320825-122.85461449 76.08581542-31.39343238 21.35742188-61.05651832 41.4788816-90.12634254 56.40930129-21.60461402 11.00006079-35.22491455 30.03387451-37.449646 52.08343553-2.54608131 25.55969262 10.72814965 52.13287354 33.81591797 67.70599365a78.75549317 78.75549317 0 0 0 45.23620606 13.66973854L258.47949195 526.6300046399999c-14.9798584 23.35968018-31.34399438 75.04760742 12.70568895 104.73541308 16.73492455 10.90118408 33.86535668 13.96636939 50.67443824 9.44274879 27.83386207-7.5146482 45.03845191-33.02490211 48.77105737-39.13055444l51.73736524-72.50152541c4.89440918 8.0337522 11.86523438 15.22705055 20.9371953 21.35742188 23.23608375 15.32592797 44.71710205 19.10797143 64.73968506 11.71691895 4.49890161-1.63146973 8.65173364-3.73260474 12.35961867-6.08093262 5.78430176 9.86297607 14.48547339 18.34167457 27.29003906 25.58441161 17.32818627 9.88769508 35.71929955 12.03826881 53.04748583 6.25396706 8.13262963-2.71911645 15.42480469-6.92138648 21.90124488-12.01354981 6.05621362 10.25848365 15.99334741 18.24279786 29.04510522 23.16192604 47.26318336 17.82257056 85.28137208-22.19787574 99.32189917-46.59576393l47.21374536-69.70825196c2.0269773-2.89215088 58.75762915-83.10607934 68.74420165-194.24377417 6.79779077-75.83862328 8.89892578-93.36456299 9.39331008-97.29492188 0.494385-2.15057373 0.79101586-4.42474389 0.61798143-6.64947533a19.33044458 19.33044458 0 0 0-9.39331078-15.4989624l-198.98986793-134.42321801zM346.13391089 311.77038574000005c-11.12365723-7.4899292-18.11920142-20.22033715-17.10571241-30.77545166 0.74157715-7.16857934 5.19104004-12.75512695 13.59558082-17.10571313 31.39343238-16.14166283 62.11944604-37.05413842 94.67468285-59.15313673 36.53503442-24.89227319 74.40490699-50.57556153 118.38043189-73.41613769 55.51940942-28.74847436 85.10833764-45.70587134 99.69268776-54.53064012l179.65942406 121.27258348c-1.55731201 14.06524682-4.05395531 39.87213158-8.42926049 89.03869581-8.89892578 99.29718018-60.4385376 172.12005615-60.93292189 172.8616333L717.66406227 530.83227539c-0.34606958 0.51910401-0.71685815 1.03820801-0.9887693 1.65618873-0.86517358 1.43371558-22.07428002 37.69683814-49.06768823 27.51251221-2.22473145-0.86517358-4.15283203-1.77978516-5.78430176-2.89215088-2.71911645-1.80450415-10.75286865-7.24273705-2.96630859-28.03161622 3.16406273-6.40228248 4.79553247-10.62927222 4.79553246-10.62927222 3.95507789-10.28320336-0.34606958-21.43157959-9.76409935-25.70800805-9.4674685-4.25170875-20.91247559-0.19775414-26.37542677 9.26971436-0.494385 0.88989258-2.9415896 5.19104004-5.4629519 11.71691895-9.44274878 18.31695557-21.30798316 31.34399438-31.88781738 34.85412597-4.10339332 1.38427758-10.77758766 2.52136231-21.25854517-3.38653517-13.84277367-7.98431421-21.20910645-16.56188941-10.95062207-35.62042284l12.08770751-16.5124507c6.45172119-8.9483645 5.53710961-21.08551001-2.32360887-27.9327395-7.71240234-6.9955442-19.77539086-6.03149391-27.53723121 1.85394288a113.01635742 113.01635742 0 0 0-15.82031226 21.15966773l-7.86071777 10.65399194a24.64508032 24.64508032 0 0 0-2.84271288 5.36407446s-6.25396704 15.20233154-17.45178199 19.18212915c-9.31915307 3.31237817-20.78887915-2.27417016-28.79791236-7.5146482-10.55511451-7.11914063-18.34167457-16.36413598-8.40454149-38.04290771l24.29901146-34.16198755c6.37756348-8.97308349 5.33935547-20.93719459-2.42248559-27.68554664-7.73712134-6.9708252-19.60235572-6.08093262-27.38891577 1.60675002a170.63690185 170.63690185 0 0 0-28.94622779 40.16876245L337.82824683 579.18310547l-1.08764601 1.63146973c-2.69439673 4.47418189-12.28546166 17.0068357-23.23608446 19.89898658-5.68542504 1.4831543-11.61804223 0.19775414-18.16864013-4.10339332-23.43383789-15.82031227-5.63598633-45.13732934-3.53485061-48.47442651l141.44348122-214.8843379c5.61126733-8.47869849 4.79553247-19.45404029-2.05169702-26.17767335-6.72363305-6.67419434-17.47650171-7.34161377-25.63384962-1.40899657-29.68780493 21.60461402-51.41601539 11.4944458-59.40032959 6.10565162zM212.15563989 710.81304932c-62.29248047-42.02270531-78.73077416-126.31530738-36.930542-188.31115699a135.11535645 135.11535645 0 0 1 111.4096067-59.62280273l-26.25183105 38.93280029a98.92639161 98.92639161 0 0 0-55.17333985 40.02044629 100.06347633 100.06347633 0 0 0 27.26532006 138.92211962A100.06347633 100.06347633 0 0 0 371.44641137 653.93408203c13.39782739-19.87426758 18.73718286-42.91259789 16.58660841-65.11047364l26.4495852-39.20471214a135.11535645 135.11535645 0 0 1-13.79333496 124.8815918C358.81488013 736.54577637 274.37396264 752.76159692 212.18035888 710.83776832z"  horiz-adv-x="1024" />

    
    <glyph glyph-name="xiala" unicode="&#59666;" d="M1001.724 531.2l-438.4-480c-12.8-16-32-22.4-51.2-22.4-19.2 0-38.4 9.6-51.2 22.4l-438.4 480c-22.4 22.4-28.8 54.4-16 83.2s38.4 48 67.2 51.2h873.6c32-3.2 57.6-22.4 70.4-51.2 12.8-28.8 6.4-60.8-16-83.2z"  horiz-adv-x="1024" />

    
    <glyph glyph-name="todo-line1" unicode="&#59665;" d="M725.333333 810.666667h128a42.666667 42.666667 0 0 0 42.666667-42.666667v-768a42.666667 42.666667 0 0 0-42.666667-42.666667H170.666667a42.666667 42.666667 0 0 0-42.666667 42.666667V768a42.666667 42.666667 0 0 0 42.666667 42.666667h128V896h85.333333v-85.333333h256V896h85.333333v-85.333333z m0-85.333334v-85.333333h-85.333333V725.333333H384v-85.333333H298.666667V725.333333H213.333333v-682.666666h597.333334V725.333333h-85.333334zM298.666667 554.666667h426.666666v-85.333334H298.666667V554.666667z m0-170.666667h426.666666v-85.333333H298.666667v85.333333z"  horiz-adv-x="1024" />

    
    <glyph glyph-name="map-pin-fill" unicode="&#59664;" d="M783.530667 155.136L512-116.394667l-271.530667 271.530667a384 384 0 1 0 543.061334 0zM512 256a170.666667 170.666667 0 1 1 0 341.333333 170.666667 170.666667 0 0 1 0-341.333333z m0 85.333333a85.333333 85.333333 0 1 0 0 170.666667 85.333333 85.333333 0 0 0 0-170.666667z"  horiz-adv-x="1024" />

    
    <glyph glyph-name="mingpian1" unicode="&#59663;" d="M1057.59285752 824.49642891H207.98214278C132.85357138 824.49642891 71.54642832 763.39285722 71.54642832 688.07142832V79.92857168c0-75.12857138 61.10357168-136.43571445 136.43571446-136.43571445h849.61071474c75.12857138 0 136.43571445 61.10357168 136.43571357 136.43571445V688.07142832c0 75.12857138-61.10357168 136.43571445-136.43571357 136.43571445z m84.11785664-744.55714336a84.12857138 84.12857138 0 0 0-84.11785664-84.11785664H207.98214278a84.12857138 84.12857138 0 0 0-84.1285714 84.11785664V688.07142832a84.12857138 84.12857138 0 0 0 84.12857139 84.11785752h849.61071475a84.12857138 84.12857138 0 0 0 84.11785664-84.11785751V79.92857168zM421.43214307 339.42857138c70.10357168 0 127.23214307 57.12857138 127.23214307 127.23214307S491.53571387 593.89285752 421.43214307 593.89285752s-127.23214307-57.12857138-127.23214307-127.23214307S351.32857138 339.42857138 421.43214307 339.42857138z m0 202.14642833c41.22857109 0 74.91428614-33.68571416 74.91428526-74.91428526s-33.68571416-74.91428614-74.91428526-74.91428613-74.91428614 33.68571416-74.91428614 74.91428613 33.68571416 74.91428614 74.91428614 74.91428526z m284.80714277-101.07857109h238.76785723a26.16428584 26.16428584 0 0 1 0 52.31785693H706.24999971a26.16428584 26.16428584 0 0 1 0-52.31785693z m248.18571387-214.07142833h-634.07142862a26.16428584 26.16428584 0 0 1 0-52.31785781h633.85714336a26.16428584 26.16428584 0 0 1 26.16428584 26.16428584 25.99285693 25.99285693 0 0 1-25.95000058 26.15357197z"  horiz-adv-x="1292" />

    
    <glyph glyph-name="xianshanggonghuoshang1" unicode="&#59660;" d="M898.681905 893.903238a48.761905 48.761905 0 0 0 42.227809-24.380952l131.754667-228.303238a219.233524 219.233524 0 0 0-66.218667-295.497143v-329.532953h48.761905v-97.523809h-975.238095v97.523809h48.761905v329.532953a219.233524 219.233524 0 0 0-97.52381 182.467047c0 40.326095 10.922667 79.189333 30.866286 112.298667L194.31619 869.522286a48.761905 48.761905 0 0 0 42.22781 24.380952h662.186667z m-285.062095-845.482667a64.999619 64.999619 0 0 1-91.916191 0l45.982476-45.933714z m80.457142 80.457143a178.809905 178.809905 0 0 1-252.830476 0l34.474667-34.474666a130.048 130.048 0 0 0 183.881143 0z m80.457143 80.457143a292.571429 292.571429 0 0 1-413.744762 0l34.474667-34.474667a243.809524 243.809524 0 0 0 344.795429 0zM264.777143 796.379429L146.090667 590.945524a121.904762 121.904762 0 0 1 217.770666-108.056381c16.335238 40.813714 74.118095 40.813714 90.502096 0a121.904762 121.904762 0 0 1 226.450285 0c16.335238 40.813714 74.118095 40.813714 90.502096 0a121.904762 121.904762 0 1 1 217.331809 108.836571L870.4 796.379429H264.777143z"  horiz-adv-x="1126" />

    
    <glyph glyph-name="xianxiagonghuoshang" unicode="&#59662;" d="M867.474286 893.903238a48.761905 48.761905 0 0 0 42.227809-24.380952l131.754667-228.303238A219.233524 219.233524 0 0 0 975.238095 345.721905v-329.532953h48.761905v-97.523809H48.761905v97.523809h48.761905v329.532953a219.233524 219.233524 0 0 0-97.52381 182.467047C0 568.515048 10.922667 607.329524 30.866286 640.487619L163.108571 869.522286a48.761905 48.761905 0 0 0 42.22781 24.380952H867.474286z m-294.473143-584.362667h-73.142857v-109.714285h-109.714286v-73.142857h109.714286v-109.714286h73.142857v109.714286h109.714286v73.142857h-109.714286v109.714285zM233.569524 796.379429L114.883048 590.945524a121.904762 121.904762 0 0 1 217.770666-108.056381c16.335238 40.813714 74.118095 40.813714 90.502096 0a121.904762 121.904762 0 0 1 226.450285 0c16.335238 40.813714 74.118095 40.813714 90.502095 0a121.904762 121.904762 0 1 1 217.33181 108.836571L839.192381 796.379429H233.520762z"  horiz-adv-x="1177" />

    
    <glyph glyph-name="xiaochengxu1" unicode="&#59661;" d="M363.6122808 335.54210508000006c-32.35263135-16.10526357-231.48947373-99.28421016-93.74210508-232.7684212 74.84210508-74.65263135 200.13157881-27.47368388 230.4 44.52631612 4.02631612 50.49473643 3.93157881 417.07894746 3.9315788 467.52631612 0 50.49473643 150.11052627 320.11578984 423.85263135 166.97368388 0 0 308.03684238-179.66842119-48.88421015-469.51578984 0 0-122.02105254-9.85263135-93.74210596 93.07894746-4.02631612 30.31578984 148.73684238 100.46842119 128.46315849 197.38421103-32.30526357 115.05789492-220.35789492 148.64210508-269.05263135 4.02631523v-457.43684149c1.89473643-64.23157881-125.24210508-275.06842119-388.61052714-186.15789492 0 0-175.73684239 74.93684239-166.02631524 263.79473641 7.76842119 85.64210508 88.76842119 190.51578984 179.6684212 224.95263224 101.08421016 28.23157881 138.22105253-72 93.78947373-116.38421104z"  horiz-adv-x="1131" />

    
    <glyph glyph-name="shouqi1" unicode="&#59659;" d="M896 128v-85.333333H128v85.333333h768zM296.533333 744.533333v-422.4L85.333333 533.333333l211.2 211.2zM896 426.666667v-85.333334h-384v85.333334h384z m0 298.666666v-85.333333h-384V725.333333h384z"  horiz-adv-x="1024" />

    
    <glyph glyph-name="zhibo" unicode="&#59658;" d="M746 797.44628906c12.28710938-12.91113281 12.45410156-33.14355469 0.36914063-46.25683594l-0.36914063-0.39550781-71.60449219-74.17089844h133.01367188c70.51464844-1.32714844 126.59765625-59.54589844 125.32324218-130.05175781v-455.26464844c1.29199219-70.5234375-54.79980469-128.75097655-125.32324218-130.078125H212.19628906c-70.5234375 1.32714844-126.61523438 59.56347655-125.32324219 130.078125V546.5625c-1.29199219 70.5234375 54.79980469 128.75097655 125.32324219 130.078125h133.21582031l-71.578125 74.17089845c-12.41894531 13.06054688-12.41894531 33.56542969 0 46.62597655 11.83886719 12.41015625 31.50878906 12.8671875 43.91015625 1.02832031 0.34277344-0.33398438 0.69433594-0.67675781 1.02832032-1.02832031l116.62207031-120.80566406h148.921875L700.94726563 797.4375c11.80371094 12.4453125 31.46484375 12.96386719 43.91015624 1.16015625 0.38671875-0.37792969 0.76464844-0.75585938 1.14257813-1.15136719z m-290.0390625-340.3125c-28.07226563-0.59765625-50.38769531-23.765625-49.93066406-51.83789062V232.56445312000005a55.24189453 55.24189453 0 0 1 6.84667968-26.42871093c13.68457031-24.12597655 44.33203125-32.58984375 68.46679687-18.9140625 0.3515625 0.20214844 0.71191406 0.40429687 1.05468751 0.61523437l135.10546875 85.35058594a49.9921875 49.9921875 0 0 1 16.64648438 17.28808594c14.78320313 24.38085938 7.90136719 56.08300781-15.67089844 72.13183593l-136.07226563 86.38769532a45.95273437 45.95273437 0 0 1-26.44628906 8.13867187z"  horiz-adv-x="1024" />

    
    <glyph glyph-name="biaoti1" unicode="&#59657;" d="M116.181404 762.277854 116.181404 454.866575 201.417293 454.866575 201.417293 762.277854 317.598697 762.277854 317.598697 832 0 832 0 762.277854 116.181404 762.277854ZM412.356282 770.200826 412.356282 832 335.263948 832 335.263948 770.200826 412.356282 770.200826ZM335.263948 727.944979 335.263948 454.866575 412.356282 454.866575 412.356282 727.944979 335.263948 727.944979ZM550.003263 727.944979 550.003263 809.815681 472.91093 809.815681 472.91093 727.944979 426.221206 727.944979 426.221206 677.766163 472.91093 677.766163 472.91093 516.66575C472.91093 502.932531 475.263489 491.840483 479.968678 483.389271 484.673868 474.93806 491.098164 468.423682 499.241762 463.845942 507.385359 459.268203 516.795596 456.187078 527.472757 454.602476 538.149917 453.017874 549.4603 452.225585 561.404242 452.225585 569.004932 452.225585 576.786475 452.401649 584.749103 452.753782 592.711731 453.105916 599.950376 453.810173 606.465253 454.866575L606.465253 512.968363C602.845877 512.264095 599.045588 511.735903 595.064275 511.383769 591.082961 511.031635 586.92074 510.855571 582.577488 510.855571 569.547733 510.855571 560.86136 512.968342 556.518108 517.193948 552.174856 521.419553 550.003263 529.870638 550.003263 542.547455L550.003263 677.766163 606.465253 677.766163 606.465253 727.944979 550.003263 727.944979ZM624.673409 832 624.673409 454.866575 701.765741 454.866575 701.765741 832 624.673409 832ZM930.620557 620.720771 805.209786 620.720771C805.571725 626.002778 806.748006 631.988963 808.738662 638.679505 810.729318 645.370047 814.167674 651.708361 819.05383 657.694636 823.939994 663.68091 830.454771 668.698742 838.598368 672.74828 846.741965 676.79782 856.966547 678.822559 869.272429 678.822559 888.09319 678.822559 902.118061 673.892759 911.347469 664.033012 920.576883 654.173266 927.001178 639.735996 930.620557 620.720771L930.620557 620.720771ZM805.209786 573.182943 1007.71289 573.182943C1009.16064 594.310972 1007.350976 614.558363 1002.283853 633.925722 997.216723 653.293082 988.982765 670.54738 977.581728 685.689133 966.180691 700.830887 951.612922 712.89129 933.877978 721.870701 916.143034 730.850114 895.33193 735.339752 871.444045 735.339752 850.089722 735.339752 830.635866 731.642403 813.081888 724.247593 795.527917 716.852783 780.417248 706.729087 767.749427 693.876204 755.081613 681.02332 745.30944 665.793761 738.432627 648.18707 731.555808 630.58038 728.117453 611.565439 728.117453 591.141678 728.117453 570.013649 731.465325 550.64658 738.161171 533.03989 744.857018 515.433199 754.357741 500.291673 766.663622 487.614856 778.969498 474.938038 793.98969 465.166472 811.724634 458.299862 829.459578 451.433253 849.36585 448 871.444045 448 903.29456 448 930.439475 455.042571 952.87961 469.127923 975.319744 483.213276 991.968627 506.629823 1002.826752 539.378267L934.963782 539.378267C932.430221 530.927055 925.55351 522.916131 914.33344 515.345254 903.113376 507.774378 889.721882 503.988996 874.158566 503.988996 852.442304 503.988996 835.793421 509.446988 824.211418 520.363136 812.629414 531.279284 806.295597 548.885711 805.209786 573.182943ZM0 320 1024 320 1024 256 0 256 0 320ZM0 128 1024 128 1024 64 0 64 0 128ZM0-64 768-64 768-128 0-128 0-64Z"  horiz-adv-x="1024" />

    
    <glyph glyph-name="neirong" unicode="&#59653;" d="M927.75641173 824.18346667H282.42540587a37.3356608 37.3356608 0 0 1-37.3356608-37.3356608v-77.89847254a37.3356608 37.3356608 0 1 1 74.6713216 0v40.56281174h570.65968533v-542.80688427h-44.28644907a37.3356608 37.3356608 0 1 1 0-74.6713216h81.6221088a37.3356608 37.3356608 0 0 1 37.3356608 37.3356608V786.84780587a37.3356608 37.3356608 0 0 1-37.3356608 37.3356608zM746.48979413 632.7389088H101.15878827a37.3356608 37.3356608 0 0 1-37.3356608-37.28601173v-617.47820587a37.3356608 37.3356608 0 0 1 37.3356608-37.3356608h645.33100586a37.28601173 37.28601173 0 0 1 37.3356608 37.3356608V595.4528970700001a37.3356608 37.3356608 0 0 1-37.3356608 37.3356608z m-37.3356608-617.4285568H138.494448V558.1172362699999h570.65968533v-542.80688427zM233.62094507 406.39146667h347.291152a37.3356608 37.3356608 0 1 1 0 74.6713216H233.62094507a37.3356608 37.3356608 0 0 1 0-74.6713216z m0-153.0662784h347.291152a37.3356608 37.3356608 0 0 1 0 74.67132053H233.62094507a37.3356608 37.3356608 0 0 1 0-74.67132053z m0-153.16557654h252.11500693a37.3356608 37.3356608 0 0 1 0 74.6713216H233.62094507a37.3356608 37.3356608 0 1 1 0-74.6713216z"  horiz-adv-x="1024" />

    
    <glyph glyph-name="diqiu1" unicode="&#59655;" d="M174.1824 237.568c59.904 19.9168 125.1328 33.5872 162.5088 26.112 57.2416-11.4688 101.376-55.5008 118.6816-135.4752l0.4096-2.048 2.4064-2.56 5.888-5.632 13.5168-12.544c39.5776-37.7856 55.3472-75.008 31.0784-120.9856l-2.2016-3.9424-59.2384 33.8944c7.168 12.4928 4.1984 21.0944-14.08 39.0144l-19.8656 18.688a187.5968 187.5968 0 0 0-3.7888 3.6352c-10.752 11.008-17.3568 20.3776-19.8656 33.3312-11.1616 56.9344-35.072 81.408-66.3552 87.7056-20.4288 4.096-75.4688-7.168-122.368-22.3232l-5.12-1.6896-21.6064 64.768zM512 827.7504A443.6992 443.6992 0 0 1 68.2496 384 443.6992 443.6992 0 0 1 512-59.7504 443.6992 443.6992 0 0 1 955.7504 384 443.6992 443.6992 0 0 1 512 827.7504z m0-68.3008a375.5008 375.5008 0 1 0 0-750.9504 375.5008 375.5008 0 0 0 0 750.9504zM398.7456 492.8512c0.0512 0.256 0.1024 0.256 0.2048 0.0512l0.4096-2.3552c0.6144-3.2256 1.6384-7.2704 3.0208-12.1344l2.56-8.448c2.2528-7.168 5.0176-15.104 8.96-25.9584l15.5648-42.496c5.5808-15.36 8.3968-23.8592 11.264-33.6384 11.5712-39.7312-23.6544-68.6592-65.536-73.216-39.2704-4.1984-80.4864 12.288-111.4112 48.6912a121.088 121.088 0 0 0-22.9376 43.1616l-3.072 10.2912-2.7648 9.984c-5.7344 21.1456-7.168 23.9104-13.5168 24.9856l-1.024 0.2048a63.0272 63.0272 0 0 1-8.8064 0.5632c-14.848 0-32.2048-4.4032-49.92-12.032a199.424 199.424 0 0 1-17.8176-8.704l-5.2736-3.0208-0.6144-0.4096a34.1504 34.1504 0 0 0-36.9664 57.3952c7.2192 4.6592 18.8928 11.1104 33.792 17.5104 25.4976 10.9056 51.3536 17.5616 76.8512 17.5616 6.2464 0 12.3904-0.4608 18.432-1.3312 41.1648-5.8368 57.1392-27.2896 69.4784-70.2976l4.9664-17.8176c3.4304-11.52 6.7584-18.6368 11.2128-23.808 16.3328-19.2 35.328-26.8288 52.0704-25.0368l2.2016 0.3072 0.5632 0.1024-5.376 15.3088-15.2064 41.472c-17.408 47.8208-21.8112 65.28-18.7392 83.8144 9.984 59.9552 41.8304 110.3872 109.568 119.1424l4.9152 0.5632c38.912 3.7888 49.152 27.4432 36.1472 39.0144-23.3472 20.7872-119.5008 36.9664-185.5488 27.5456a34.1504 34.1504 0 1 0-9.6768 67.584c84.0192 11.9808 199.3728-7.4752 240.64-44.1344 59.7504-53.0944 20.8384-145.8176-70.6048-157.44l-4.3008-0.512c-30.464-2.9696-46.848-26.7264-53.1456-59.1872l-0.5632-3.2768z m340.6336 222.9248a34.1504 34.1504 0 0 0 34.9696-58.5728l-2.2528-1.3312c-12.288-6.7072-43.0592-37.6832-69.7344-71.3728-10.9568-13.824-20.48-27.136-27.648-38.6048l-1.1264-1.8944 2.048 0.1536c7.1168 0.6144 15.2064 1.536 24.3712 2.816l10.2912 1.4848 48.0256 7.7312c3.1232 0.512 5.888 0.8704 8.4992 1.2288 6.7584 0.9728 12.0832 1.536 16.6912 1.7408 11.2128 0.512 17.9712-0.1024 27.392-6.4 13.2608-8.8064 26.9824-34.304 39.1168-64.7168 5.632-14.08 9.728-26.9824 11.6736-37.7856 1.4848-8.0896 1.8432-15.36 0.512-22.6304-2.7136-15.3088-12.8-28.7232-30.5664-32.256l-3.6352-0.6656c-6.4512-1.024-12.9024-1.8432-19.3536-2.6112l-61.952-7.4752-25.0368-3.2256-15.7696-2.2528-7.7312-1.1776c-12.1856-1.9456-20.7872-3.584-24.4736-4.7616-35.584-11.1616-49.4592-30.208-49.6128-57.1904-0.1024-23.552 11.52-51.5584 24.0128-64 5.888-5.9392 13.824-12.0832 26.1632-20.48l28.5184-18.7904 1.9968-1.3312c8.8576-5.9904 15.7696-11.1104 21.8624-16.2304 20.8384-17.7664 32.1024-36.6592 25.9584-61.2864l-1.8944-7.0656c-2.3552-8.192-5.888-19.456-10.5472-33.5872l-10.0864-30.208-11.6736-34.2016-11.1616-32a34.1504 34.1504 0 0 0-65.2288 20.0704l1.1776 3.584 6.656 19.2 7.936 22.8864 9.0112 26.4192c4.9152 14.592 9.1648 27.3408 12.4416 37.632l4.7104 15.2064-5.4272 4.608a130.4576 130.4576 0 0 1-10.0352 7.1168l-23.7056 15.616c-20.7872 13.6704-33.6896 23.2448-44.9536 34.56-25.2928 25.2416-44.2368 70.7584-43.9808 112.64 0.3072 56.5248 33.3312 101.888 97.4336 121.9584 8.96 2.816 22.784 5.4272 42.5472 8.3456l10.752 1.536 11.8272 1.6384 69.888 8.6016-1.6384 4.2496a301.7728 301.7728 0 0 1-10.4448 23.1424l-1.9456 3.6864-11.9808-1.8432-25.4464-4.1984a1545.728 1545.728 0 0 0-16.384-2.56l-5.0176-0.7168c-24.4736-3.584-43.5712-5.376-59.392-5.0176-30.5664 0.6144-52.0192 7.7824-59.904 34.6112-8.5504 29.0816 12.288 66.048 52.736 117.0944l8.0896 10.0352c29.8496 36.3008 61.6448 67.5328 82.432 78.848z"  horiz-adv-x="1024" />

    
    <glyph glyph-name="shezhi2" unicode="&#59656;" d="M552.98807052-70.73684249999997H463.50596521a64.77473719 64.77473719 0 0 0-60.12631594 40.42105313 807.15789469 807.15789469 0 0 0-22.58526375 63.10736812 369.44842125 369.44842125 0 0 0-30.66947344 12.73263188c-26.02105219-13.54105219-46.78736813-22.88842125-60.63157875-28.64842125a64.72421062 64.72421062 0 0 0-71.09052656 13.74315843L154.89122802 94.08000000000004a64.77473719 64.77473719 0 0 0-13.99578938 71.04c5.76 13.79368406 15.15789469 34.71157875 28.64842125 60.73263187a405.47368406 405.47368406 0 0 0-12.68210531 30.66947344 852.22736812 852.22736812 0 0 0-63.15789469 22.58526281A64.77473719 64.77473719 0 0 0 53.33333333 339.23368406v89.43157875a64.72421062 64.72421062 0 0 0 40.42105219 60.12631594c13.79368406 5.70947344 35.2168425 13.84421063 63.10736906 22.63578938 3.73894781 10.40842125 7.9831575 20.61473719 12.63157875 30.66947437a798.36631594 798.36631594 0 0 0-28.59789469 60.63157875 64.72421062 64.72421062 0 0 0 13.99578938 71.09052656l63.51157875 63.51157875c18.59368406 18.69473719 46.68631594 24.25263187 70.98947437 13.99578938 13.79368406-5.76 34.71157875-15.15789469 60.63157875-28.64842125 10.10526281 4.64842125 20.31157875 8.89263187 30.66947344 12.68210531 8.84210531 27.89052656 17.02736812 49.31368406 22.68631594 63.15789469a64.77473719 64.77473719 0 0 0 60.12631594 40.16842125h89.43157874c26.42526281 0 50.2231575-15.96631594 60.12631594-40.42105313 5.70947344-13.79368406 13.84421063-35.26736813 22.63578938-63.15789469 10.40842125-3.73894781 20.61473719-7.9831575 30.66947344-12.68210531 25.97052656 13.49052656 46.78736813 22.83789469 60.63157874 28.64842125a64.77473719 64.77473719 0 0 0 71.09052657-13.7431575l63.51157875-63.51157875c18.69473719-18.59368406 24.25263187-46.7368425 13.99578937-71.04-5.76-13.7431575-15.15789469-34.71157875-28.64842031-60.63157969 4.64842125-10.05473719 8.89263187-20.26105219 12.68210531-30.66947343 27.89052656-8.84210531 49.31368406-16.9768425 63.15789469-22.58526282 24.45473719-9.95368406 40.42105219-33.75157875 40.37052562-60.12631593v-89.48210532c0-26.42526281-15.91578938-50.2231575-40.42105218-60.12631593-13.79368406-5.65894781-35.2168425-13.84421063-63.10736813-22.63578938a368.53894781 368.53894781 0 0 0-12.73263187-30.61894781c13.54105219-26.02105219 22.88842125-46.78736813 28.64842125-60.63157875a64.77473719 64.77473719 0 0 0-13.94526375-71.19157875l-63.51157875-63.46105219c-18.59368406-18.69473719-46.68631594-24.25263187-71.04-13.99579031-13.7431575 5.76-34.71157875 15.15789469-60.63157875 28.64842125a407.19157875 407.19157875 0 0 0-30.66947344-12.68210531c-8.84210531-27.94105219-16.9768425-49.31368406-22.58526375-63.15789469-10.00421063-24.40421063-33.85263188-40.26947344-60.17684156-40.16842125z m-203.41894781 185.22947437c5.30526281 0 10.45894781-1.31368406 15.15789468-3.78947437 16.6231575-8.69052656 34.00421062-15.91578938 51.94105313-21.47368406a32.48842125 32.48842125 0 0 0 21.52421062-21.77684156c9.85263188-33.34736813 19.30105219-58.20631594 25.46526281-73.26315844h89.48210532c6.16421062 15.10736813 15.61263187 39.96631594 25.46526281 73.26315844a32.48842125 32.48842125 0 0 0 21.52421063 21.82736812c17.9368425 5.55789469 35.36842125 12.73263187 51.94105312 21.47368406a32.48842125 32.48842125 0 0 0 30.61894688 0c30.56842125-16.57263187 54.82105219-27.5368425 69.7768425-33.80210531l63.30947343 63.25894781a781.18736813 781.18736813 0 0 1-33.85263187 69.82736813 32.48842125 32.48842125 0 0 0 0 30.61894781c8.79157875 16.6231575 15.96631594 34.00421062 21.52421062 51.94105219a32.48842125 32.48842125 0 0 0 21.7768425 21.52421062 768 768 0 0 1 73.2631575 25.46526282V428.76631594c-15.10736813 6.16421062-40.0168425 15.56210531-73.2631575 25.46526281a32.48842125 32.48842125 0 0 0-21.82736906 21.52421063c-5.55789469 17.9368425-12.7831575 35.31789469-21.52420969 51.94105312a32.48842125 32.48842125 0 0 0 0 30.61894688c16.6231575 30.56842125 27.5368425 54.82105219 33.85263094 69.77684249L752.21333333 691.2a782.65263187 782.65263187 0 0 1-69.82736812-33.85263188 32.48842125 32.48842125 0 0 0-30.61894782 0 306.8968425 306.8968425 0 0 1-51.94105218 21.52421063 32.48842125 32.48842125 0 0 0-21.52421063 21.72631594 768.35368406 768.35368406 0 0 1-25.46526375 73.2631575H463.50596521a788.21052656 788.21052656 0 0 1-25.36421063-72.75789469 32.48842125 32.48842125 0 0 0-21.62526375-22.18105219c-17.9368425-5.55789469-35.36842125-12.73263187-51.94105219-21.47368406a32.48842125 32.48842125 0 0 0-30.61894781 0 788.41263187 788.41263187 0 0 1-69.77684156 33.85263094l-63.15789469-63.36c6.26526281-15.00631594 17.22947344-39.25894781 33.85263094-69.82736813a32.48842125 32.48842125 0 0 0 0-30.61894687c-8.74105219-16.67368406-15.91578938-34.00421062-21.47368406-51.94105313a32.48842125 32.48842125 0 0 0-21.77684157-21.52421062c-33.34736813-9.9031575-58.20631594-19.30105219-73.26315843-25.46526282v-89.48210531c14.95578938-6.0631575 39.56210531-15.61263187 72.75789468-25.2631575 10.96421062-3.03157875 19.60421063-11.62105219 22.68631594-22.58526375 5.40631594-17.33052656 12.37894781-34.20631594 20.76631594-50.32421062a32.48842125 32.48842125 0 0 0-0.3031575-32.08421063 782.95578937 782.95578937 0 0 1-33.34736906-68.96842031l63.25894781-63.30947438c15.00631594 6.26526281 39.25894781 17.22947344 69.82736812 33.85263188 4.74947344 2.62736812 10.10526281 4.04210531 15.56210532 4.04210531z m163.85684249 74.57684157a194.88 194.88 0 1 0 1e-8 389.76 194.88 194.88 0 0 0 0-389.70947344z m1e-8 324.83368406a129.9031575 129.9031575 0 1 1 0-259.85684156 129.9031575 129.9031575 0 0 1 0 259.85684156z"  horiz-adv-x="1024" />

    
    <glyph glyph-name="sunyidan" unicode="&#59654;" d="M204.79232 793.60512v-204.789761h614.369282V793.60512h102.753262c28.056197 0 50.839058-22.782861 50.839058-50.839058v-336.776761l-358.382081-358.382081-0.102394-72.290786 72.495575-0.102395L972.753922 261.151742v-338.312684a50.890255 50.890255 0 0 0-50.839058-50.839058H102.039058A50.890255 50.890255 0 0 0 51.2-77.109745V742.766062C51.2 770.822259 73.982861 793.60512 102.039058 793.60512H204.79232z m307.184641-511.20644H255.989761v-102.39488h255.9872v102.39488z m153.592321 204.789761H255.989761v-102.394881h409.579521v102.394881zM307.187201 896h409.579521v-204.789761H307.187201V896z"  horiz-adv-x="1024" />

    
    <glyph glyph-name="huaban" unicode="&#59652;" d="M638.21674229 857.4311397v-252.52816972c0-34.84453131 28.31118176-63.06102795 63.15571307-63.06102794h252.52816972v-568.11736737A63.15571436 63.15571436 0 0 0 890.74491202-89.43113970000002H133.25508798a63.15571436 63.15571436 0 0 0-63.15571306 63.15571437V794.27542533C70.09937492 829.21464305 98.41055668 857.4311397 133.25508798 857.4311397h504.96165431zM701.37245536 857.4311397l252.52816972-252.52816972H732.90296998A31.53051333 31.53051333 0 0 0 701.37245536 636.52816972V857.4311397zM435.58821375 182.60239352999997l-89.28911251 89.2891125a31.53051333 31.53051333 0 0 1-44.59721371-44.69189883l111.54037681-111.54037679c12.30920907-12.30920907 32.38268975-12.30920907 44.69190011 0L703.26617973 361.08593341000005a31.53051333 31.53051333 0 0 1-44.5972124 44.69189881L435.58821375 182.60239352999997z"  horiz-adv-x="1024" />

    
    <glyph glyph-name="zhuanpan" unicode="&#59651;" d="M790.4 662.26C716.04 736.5740000000001 617.167 777.501 512 777.501s-204.042-40.928-278.395-115.242C159.247 587.948 118.25 489.131 118.25 384.027c0-105.06 40.947-203.928 115.355-278.242C308.011 31.476 406.833-9.500999999999976 512-9.500999999999976s204.039 40.919 278.447 115.286C864.752 180.10000000000002 905.75 278.967 905.75 384.027c0 105.104-40.993 203.921-115.35 278.233m-33.41-523.137L602.683 293.39c-16.53-16.467-36.451-27.547-57.475-33.139l56.528-210.866c-28.912-7.68-59.025-11.678-89.737-11.678-30.71 0-60.819 3.998-89.733 11.678l56.526 210.866c-21.022 5.59-40.947 16.671-57.424 33.139L267.011 139.12300000000005c-44.64 44.515-74.508 98.372-89.687 155.315l210.784 56.397c-5.794 21.758-5.794 44.665 0 66.327l-210.784 56.444c15.18 56.943 45.048 110.746 89.636 155.315l154.357-154.263c16.529 16.467 36.454 27.545 57.476 33.137L422.267 718.66c28.913 7.683 59.023 11.677 89.733 11.677 30.712 0 60.823-3.995 89.737-11.677l-56.528-210.865c21.024-5.637 40.945-16.671 57.475-33.188l154.3 154.27c43.797-43.721 74.314-97.026 89.888-155.22l-211.033-56.493a128.72 128.72 0 0 0 0-66.327l211.033-56.498c-15.527-58.195-46.095-111.497-89.886-155.216M532.822 490.476L512 591.992l-19.276-101.215c-21.021-3.792-41.197-13.774-57.424-30.046-42.398-42.368-42.398-111.046 0-153.417 42.395-42.324 111.111-42.324 153.503 0 42.394 42.371 42.394 111.049 0 153.417-15.932 15.827-35.505 25.755-55.982 29.745m0.001 0z"  horiz-adv-x="1024" />

    
    <glyph glyph-name="datujingcou" unicode="&#59649;" d="M546.133333 640c186.709333 0 358.2976-63.044267 464.418134-167.1168l8.669866-8.772267-24.576-23.688533C896.170667 542.72 729.156267 605.866667 546.133333 605.866667c-177.937067 0-340.753067-59.733333-440.149333-157.013334l-8.362667-8.430933-24.576 23.688533C178.312533 573.405867 354.269867 640 546.133333 640zM256 725.333333m-34.133333 0a34.133333 34.133333 0 1 1 68.266666 0 34.133333 34.133333 0 1 1-68.266666 0ZM1006.933333 896h-921.6a68.266667 68.266667 0 0 1-68.266666-68.266667v-341.333333a68.266667 68.266667 0 0 1 68.266666-68.266667h921.6a68.266667 68.266667 0 0 1 68.266667 68.266667V827.733333a68.266667 68.266667 0 0 1-68.266667 68.266667z m-921.6-34.133333h921.6a34.133333 34.133333 0 0 0 34.133334-34.133334v-341.333333a34.133333 34.133333 0 0 0-34.133334-34.133333h-921.6a34.133333 34.133333 0 0 0-34.133333 34.133333V827.733333a34.133333 34.133333 0 0 0 34.133333 34.133334zM546.133333 93.866667c186.709333 0 358.2976-63.044267 464.418134-167.1168l8.669866-8.772267-24.576-23.688533C896.170667-3.413333 729.156267 59.733333 546.133333 59.733333c-177.937067 0-340.753067-59.733333-440.149333-157.013333l-8.362667-8.430933-24.576 23.688533C178.312533 27.272533 354.269867 93.866667 546.133333 93.866667zM256 179.2m-34.133333 0a34.133333 34.133333 0 1 1 68.266666 0 34.133333 34.133333 0 1 1-68.266666 0ZM1006.933333 349.866667h-921.6a68.266667 68.266667 0 0 1-68.266666-68.266667v-341.333333a68.266667 68.266667 0 0 1 68.266666-68.266667h921.6a68.266667 68.266667 0 0 1 68.266667 68.266667V281.6a68.266667 68.266667 0 0 1-68.266667 68.266667z m-921.6-34.133334h921.6a34.133333 34.133333 0 0 0 34.133334-34.133333v-341.333333a34.133333 34.133333 0 0 0-34.133334-34.133334h-921.6a34.133333 34.133333 0 0 0-34.133333 34.133334V281.6a34.133333 34.133333 0 0 0 34.133333 34.133333z"  horiz-adv-x="1092" />

    
    <glyph glyph-name="zongxiangtuwen" unicode="&#59650;" d="M1442.934154 738.461538v-39.384615H0V738.461538zM1442.934154 580.923077v-39.384615H0V580.923077zM472.615385 876.307692v-39.384615H0v39.384615zM1377.516308 383.015385c36.548923 0 76.169846-26.781538 76.169846-71.24677v-366.395077c0-44.504615-39.620923-71.246769-76.169846-71.246769H825.462154c-36.548923 0-76.169846 26.781538-76.169846 71.246769V311.768615C749.292308 356.273231 788.873846 383.054769 825.462154 383.054769h552.054154z m0-39.384616H825.462154c-20.322462 0-36.785231-14.257231-36.785231-31.862154v-366.395077c0-17.604923 16.462769-31.862154 36.785231-31.862153h552.054154c20.322462 0 36.785231 14.257231 36.78523 31.862153V311.768615c0 17.604923-16.462769 31.901538-36.78523 31.901539zM1101.469538 120.910769c127.448615 0 243.987692-70.892308 315.47077-186.564923l6.57723-10.948923-34.067692-19.771077C1325.410462 14.099692 1218.244923 81.526154 1101.469538 81.526154c-112.955077 0-217.009231-63.133538-281.6-167.345231l-6.340923-10.555077-34.067692 19.771077C850.274462 45.568 970.043077 120.910769 1101.469538 120.910769zM890.328615 195.032615m-46.907077 0a46.907077 46.907077 0 1 1 93.814154 0 46.907077 46.907077 0 1 1-93.814154 0ZM629.208615 383.015385c36.548923 0 76.169846-26.781538 76.169847-71.24677v-366.395077c0-44.504615-39.620923-71.246769-76.169847-71.246769H77.154462c-36.548923 0-76.169846 26.781538-76.169847 71.246769V311.768615C0.984615 356.273231 40.566154 383.054769 77.154462 383.054769h552.054153z m0-39.384616H77.154462c-20.322462 0-36.785231-14.257231-36.785231-31.862154v-366.395077c0-17.604923 16.462769-31.862154 36.785231-31.862153h552.054153c20.322462 0 36.785231 14.257231 36.785231 31.862153V311.768615c0 17.604923-16.462769 31.901538-36.785231 31.901539zM353.161846 120.910769c127.448615 0 243.987692-70.892308 315.470769-186.564923l6.577231-10.948923-34.067692-19.771077C577.102769 14.099692 469.937231 81.526154 353.161846 81.526154c-112.955077 0-217.009231-63.133538-281.6-167.345231l-6.340923-10.555077-34.067692 19.771077C101.966769 45.568 221.735385 120.910769 353.161846 120.910769zM142.020923 195.032615m-46.907077 0a46.907077 46.907077 0 1 1 93.814154 0 46.907077 46.907077 0 1 1-93.814154 0Z"  horiz-adv-x="1457" />

    
    <glyph glyph-name="sousuo2" unicode="&#59648;" d="M1062.66819 868.790857c269.312 0 487.619048-218.307048 487.619048-487.619047s-218.307048-487.619048-487.619048-487.619048H520.192c-269.312 0-487.619048 218.307048-487.619048 487.619048s218.307048 487.619048 487.619048 487.619047h542.47619z m0-48.761905H520.192a438.857143 438.857143 0 1 1 0-877.714285h542.47619a438.857143 438.857143 0 1 1 0 877.714285z m-307.248761-198.753523a225.28 225.28 0 0 0 181.394285-358.790096l93.42781-93.427809-34.474667-34.474667-91.91619 91.964953a225.28 225.28 0 1 0-148.431238 394.77638z m0-48.761905a176.518095 176.518095 0 1 1 0-353.036191 176.518095 176.518095 0 0 1 0 353.036191z"  horiz-adv-x="1560" />

    
    <glyph glyph-name="jiangbei1" unicode="&#59647;" d="M213.364 659.155v11.209A155.455 155.455 0 0 0 368.818 825.818h286.364a155.455 155.455 0 0 0 155.454-155.454v-11.21a175.95 175.95 0 0 0-14.809-347.89 298.923 298.923 0 0 0-251.1-203.687v-88.568h253.637a32.727 32.727 0 1 0 0-65.454H225.636a32.727 32.727 0 1 0 0 65.454h253.637v88.568a298.923 298.923 0 0 0-251.1 203.687 175.91 175.91 0 0 0-14.81 347.89z m0-67.337a110.495 110.495 0 0 1 0.94-211.377 302.727 302.727 0 0 0-0.94 24.014V591.818z m597.272 0v-187.363a302.727 302.727 0 0 0-0.94-24.014 110.495 110.495 0 0 1 0.94 211.377zM368.818 760.364a90 90 0 0 1-90-90v-265.91a233.182 233.182 0 1 1 466.364 0v265.91a90 90 0 0 1-90 90H368.818z"  horiz-adv-x="1024" />

    
    <glyph glyph-name="yuangong1" unicode="&#59118;" d="M512 426.667a213.333 213.333 0 0 0 213.333-213.334v-256H298.667v256A213.333 213.333 0 0 0 512 426.667zM225.621 298.41a297.941 297.941 0 0 1-11.946-70.4l-0.342-14.678v-256h-128v192a149.333 149.333 0 0 0 133.078 148.48l7.253 0.598z m572.758 0a149.376 149.376 0 0 0 140.288-149.078v-192h-128v256c0 29.568-4.267 58.112-12.288 85.078zM234.667 554.667a106.667 106.667 0 1 0 0-213.334 106.667 106.667 0 0 0 0 213.334z m554.666 0a106.667 106.667 0 1 0 0-213.334 106.667 106.667 0 0 0 0 213.334zM512 810.667a170.667 170.667 0 1 0 0-341.334 170.667 170.667 0 0 0 0 341.334z"  horiz-adv-x="1024" />

    
    <glyph glyph-name="zhuanpan1" unicode="&#59646;" d="M512 829.696a445.7472 445.7472 0 1 1 445.6448-445.7472A445.87008 445.87008 0 0 1 512 829.696z m266.0352-711.8848a377.18016 377.18016 0 0 0-64.4096-51.5072l-197.2224 314.4704-196.4032-320.4096a380.42624 380.42624 0 0 0-74.0352 57.4464 375.38816 375.38816 0 0 0-110.08 263.0656H516.096l-182.272 334.5408a376.56576 376.56576 0 0 0 364.2368-4.5056l-181.5552-330.0352h371.6096a374.95808 374.95808 0 0 0-110.08-263.0656z"  horiz-adv-x="1024" />

    
    <glyph glyph-name="duorenpintuan_mian" unicode="&#59645;" d="M902.350894 793.79013v-819.398112H121.552915V793.79013h780.797979z m-98.052177-719.51524V693.908282H219.605092v-619.633392h584.693625z m-295.072388 133.183301h78.077239V459.012438L326.731948 163.97791099999995l-72.625064 66.601884 236.05832 268.195252H268.631692v99.882871h318.671876v72.128761h98.051153v-72.128761h80.802305v-99.882871h-80.802305v-390.265449H509.226329v98.948593z"  horiz-adv-x="1024" />

    
    <glyph glyph-name="shangpinjiaqian2" unicode="&#59644;" d="M888 745.6L465.6 806.4 72 414.4c-16-16-16-43.2 0-60.8l424-422.4c16-16 43.2-16 60.8 0l392 392L888 745.6zM764.8 400h-128l78.4-78.4-60.8-60.8-91.2 91.2-30.4-30.4 91.2-91.2-60.8-60.8-91.2 91.2-60.8-60.8-59.2 62.4 60.8 60.8-91.2 91.2 60.8 60.8 91.2-91.2 30.4 30.4-91.2 91.2 60.8 60.8L552 488V616h84.8v-128h128v-88z"  horiz-adv-x="1024" />

    
    <glyph glyph-name="gerenzhongxin2" unicode="&#59643;" d="M554.667 128v-85.333h170.666v-85.334H298.667v85.334h170.666V128H128a42.667 42.667 0 0 0-42.667 42.667V725.333A42.667 42.667 0 0 0 128 768h768a42.667 42.667 0 0 0 42.667-42.667v-554.666A42.667 42.667 0 0 0 896 128H554.667z m-128 448v-256L640 448 426.667 576z"  horiz-adv-x="1024" />

    
    <glyph glyph-name="HOT-fill-011" unicode="&#59642;" d="M936 636.8c22.4 0 40-17.6 40-40v-427.2c0-11.2-4.8-20.8-11.2-27.2-8-8-17.6-11.2-28.8-11.2H155.2c-22.4 0-40 17.6-40 40V313.6L56 371.2c-3.2 3.2-6.4 8-6.4 14.4 0 4.8 1.6 9.6 6.4 14.4l59.2 57.6V598.4c0 22.4 17.6 40 40 40l780.8-1.6zM539.2 489.6c-36.8 0-65.6-11.2-86.4-36.8-20.8-22.4-30.4-52.8-30.4-89.6s9.6-65.6 30.4-89.6 49.6-35.2 86.4-35.2 65.6 11.2 86.4 35.2c20.8 22.4 30.4 52.8 30.4 89.6s-9.6 67.2-30.4 89.6c-20.8 24-49.6 36.8-86.4 36.8zM224 484.8h-40v-241.6h40V350.4h121.6v-107.2H384V484.8h-40V384H222.4s0 100.8 1.6 100.8z m649.6 0H675.2v-33.6h78.4v-206.4h40V451.2H872l1.6 33.6z m-334.4-30.4c25.6 0 44.8-8 57.6-24S616 392 616 363.2c0-28.8-6.4-49.6-19.2-65.6s-32-24-57.6-24-44.8 8-57.6 25.6c-12.8 16-19.2 38.4-19.2 65.6 0 27.2 6.4 49.6 19.2 65.6 12.8 16 33.6 24 57.6 24z"  horiz-adv-x="1024" />

    
    <glyph glyph-name="youhuiquan3" unicode="&#59641;" d="M938.667 554.667h-384A42.667 42.667 0 0 1 512 512v-256a42.667 42.667 0 0 1 42.667-42.667h384v-170.666A42.667 42.667 0 0 0 896 0H128a42.667 42.667 0 0 0-42.667 42.667V725.333A42.667 42.667 0 0 0 128 768h768a42.667 42.667 0 0 0 42.667-42.667v-170.666zM640 426.667h128v-85.334H640v85.334z"  horiz-adv-x="1024" />

    
    <glyph glyph-name="shizhong1" unicode="&#59640;" d="M751.701 641.365l61.995 61.995 60.33-60.33-61.994-61.995a384 384 0 1 0-60.33 60.33z m-282.368-86.698v-256h85.334v256h-85.334z m-128 298.666h341.334V768H341.333V853.333z"  horiz-adv-x="1024" />

    
    <glyph glyph-name="zengpinbao1" unicode="&#59639;" d="M640 810.667a170.667 170.667 0 0 0 147.797-256.043l193.536 0.043v-85.334H896v-426.666A42.667 42.667 0 0 0 853.333 0H170.667A42.667 42.667 0 0 0 128 42.667V469.333H42.667v85.334l193.536-0.043A170.667 170.667 0 0 0 512 752.854a169.941 169.941 0 0 0 128 57.813z m-85.333-341.334h-85.334v-426.666h85.334V469.333zM384 725.333a85.333 85.333 0 0 1-6.4-170.453l6.4-0.213h85.333V640a85.333 85.333 0 0 1-72.405 84.352l-6.57 0.768-6.358 0.213z m256 0a85.333 85.333 0 0 1-85.12-78.933l-0.213-6.4v-85.333H640a85.333 85.333 0 0 1 85.12 78.933l0.213 6.4A85.333 85.333 0 0 1 640 725.333z"  horiz-adv-x="1024" />

    
    <glyph glyph-name="chongzhi_mian1" unicode="&#59638;" d="M512-42.667C276.352-42.667 85.333 148.352 85.333 384S276.352 810.667 512 810.667 938.667 619.648 938.667 384 747.648-42.667 512-42.667z m42.667 384V384h128v85.333H572.33l90.538 90.496-60.373 60.374L512 529.664l-90.496 90.539-60.373-60.416 90.538-90.454H341.333V384h128v-42.667h-128V256h128v-85.333h85.334V256h128v85.333h-128z"  horiz-adv-x="1024" />

    
    <glyph glyph-name="manjiansong" unicode="&#59637;" d="M896 642.688a511.36 511.36 0 0 0-290.39-164.821 106.667 106.667 0 0 1-187.22 0A511.36 511.36 0 0 0 128 642.688V768a42.667 42.667 0 0 0 42.667 42.667h682.666A42.667 42.667 0 0 0 896 768v-125.312z m0-118.912V0a42.667 42.667 0 0 0-42.667-42.667H170.667A42.667 42.667 0 0 0 128 0V523.776a594.944 594.944 0 0 1 282.88-131.243 106.71 106.71 0 0 1 202.24 0A594.944 594.944 0 0 1 896 523.776z"  horiz-adv-x="1024" />

    
    <glyph glyph-name="gudingtaozhuang" unicode="&#59636;" d="M512 853.333A213.333 213.333 0 0 0 725.333 640v-85.333h128A42.667 42.667 0 0 0 896 512v-512a42.667 42.667 0 0 0-42.667-42.667H170.667A42.667 42.667 0 0 0 128 0V512a42.667 42.667 0 0 0 42.667 42.667h128V640A213.333 213.333 0 0 0 512 853.333z m213.333-426.666H640V384a42.667 42.667 0 0 1 85.035-4.992l0.298 4.992v42.667z m-341.333 0h-85.333V384a42.667 42.667 0 0 1 85.034-4.992L384 384v42.667zM512 768a128 128 0 0 1-127.787-120.49L384 640v-85.333h256V640a128 128 0 0 1-120.49 127.787L512 768z"  horiz-adv-x="1024" />

    
    <glyph glyph-name="dapeibao" unicode="&#59635;" d="M338.773 719.104l148.566-257.28-253.44-439.168L85.333 279.893l253.44 439.211z m92.843-439.21h507.05L790.102 22.655H283.093l148.523 257.237z m185.301 42.666L363.435 761.813h297.13l253.44-439.253H616.96z"  horiz-adv-x="1024" />

    
    <glyph glyph-name="hezuohuobanquan_mian1" unicode="&#59634;" d="M469.333 0a64 64 0 0 1-128 0H128a42.667 42.667 0 0 0-42.667 42.667V725.333A42.667 42.667 0 0 0 128 768h213.333a64 64 0 0 1 128 0H896a42.667 42.667 0 0 0 42.667-42.667v-234.666a106.667 106.667 0 1 1 0-213.334v-234.666A42.667 42.667 0 0 0 896 0H469.333z m-64 448a64 64 0 1 1 0 128 64 64 0 0 1 0-128z m0-256a64 64 0 1 1 0 128 64 64 0 0 1 0-128z"  horiz-adv-x="1024" />

    
    <glyph glyph-name="Nyuanrenxuan" unicode="&#59633;" d="M516.8 806.4c96 0 174.4-75.2 174.4-169.6h118.4c49.6 0 91.2-41.6 91.2-91.2v-492.8c0-24-9.6-48-27.2-64-17.6-17.6-40-27.2-64-27.2H222.4c-49.6 0-91.2 41.6-91.2 91.2V545.6c0 51.2 40 91.2 91.2 91.2h118.4c0 94.4 78.4 169.6 176 169.6z m-176-539.2c-12.8 0-24-6.4-30.4-17.6-6.4-11.2-6.4-24 1.6-35.2C355.2 140.8 436.8 96 523.2 96c88 0 168 44.8 211.2 118.4 6.4 11.2 6.4 24 0 33.6-6.4 11.2-17.6 17.6-30.4 17.6-12.8 0-24-6.4-30.4-17.6-32-52.8-88-84.8-150.4-84.8-62.4 0-120 32-152 84.8-6.4 11.2-17.6 19.2-30.4 19.2z m176 472c-57.6 0-104-44.8-104-100.8h209.6c-1.6 54.4-48 100.8-105.6 100.8z"  horiz-adv-x="1024" />

    
    <glyph glyph-name="jicika2" unicode="&#59632;" d="M426.667 0H128a42.667 42.667 0 0 0-42.667 42.667V725.333A42.667 42.667 0 0 0 128 768h298.667a85.333 85.333 0 1 1 170.666 0H896a42.667 42.667 0 0 0 42.667-42.667v-682.666A42.667 42.667 0 0 0 896 0H597.333a85.333 85.333 0 1 1-170.666 0zM256 554.667v-341.334h85.333V554.667H256z m426.667 0v-341.334H768V554.667h-85.333z"  horiz-adv-x="1024" />

    
    <glyph glyph-name="yinliandanpinyingxiao" unicode="&#59631;" d="M725.333 597.333a341.461 341.461 0 0 1-319.701-221.44l79.957-29.994A256.085 256.085 0 0 0 981.333 256a256 256 0 0 0-256-256H298.667a256 256 0 0 0-84.992 497.536 298.667 298.667 0 0 0 586.965 91.435 342.485 342.485 0 0 1-75.307 8.362z"  horiz-adv-x="1024" />

    
    <glyph glyph-name="pingtaiyouhuiquan2" unicode="&#59630;" d="M597.333 768v-768H128a42.667 42.667 0 0 0-42.667 42.667V277.333a106.667 106.667 0 1 1 0 213.334V725.333A42.667 42.667 0 0 0 128 768h469.333z m85.334 0H896a42.667 42.667 0 0 0 42.667-42.667v-234.666a106.667 106.667 0 1 1 0-213.334v-234.666A42.667 42.667 0 0 0 896 0H682.667V768z"  horiz-adv-x="1024" />

    
    <glyph glyph-name="chongzhi_mian" unicode="&#59629;" d="M512-42.666667C276.352-42.666667 85.333333 148.352 85.333333 384S276.352 810.666667 512 810.666667s426.666667-191.018667 426.666667-426.666667-191.018667-426.666667-426.666667-426.666667z m42.666667 384v42.666667h128v85.333333h-110.336l90.538666 90.496-60.373333 60.373334L512 529.664 421.504 620.202667 361.130667 559.786667 451.669333 469.333333H341.333333v-85.333333h128v-42.666667H341.333333v-85.333333h128v-85.333333h85.333334v85.333333h128v85.333333h-128z"  horiz-adv-x="1024" />

    
    <glyph glyph-name="qiandao_mian" unicode="&#59628;" d="M384 853.333333v-85.333333h256V853.333333h85.333333v-85.333333h170.666667a42.666667 42.666667 0 0 0 42.666667-42.666667v-682.666666a42.666667 42.666667 0 0 0-42.666667-42.666667H128a42.666667 42.666667 0 0 0-42.666667 42.666667V725.333333a42.666667 42.666667 0 0 0 42.666667 42.666667h170.666667V853.333333h85.333333z m469.333333-298.666666H170.666667v-469.333334h682.666666V554.666667z m-211.797333-91.136l60.330667-60.330667-211.2-211.2-150.869334 150.869333L400.213333 403.2l90.496-90.538667 150.869334 150.869334z"  horiz-adv-x="1024" />

    
    <glyph glyph-name="youhuiquanbao" unicode="&#59627;" d="M792 598c66.274 0 120-53.726 120-120v-75.302a80 80 0 0 0-28.355-61.097C869.215 329.403 862 315.203 862 299s7.215-30.403 21.645-42.6A80 80 0 0 0 912 195.301V120c0-66.274-53.726-120-120-120H232c-66.274 0-120 53.726-120 120v75.302a80 80 0 0 0 28.355 61.097C154.785 268.597 162 282.797 162 299s-7.215 30.403-21.645 42.6A80 80 0 0 0 112 402.699V478c0 66.274 53.726 120 120 120h560zM388 401c-19.683 0-35.677-15.797-35.995-35.405L352 365v-132c0-19.882 16.118-36 36-36 19.683 0 35.677 15.797 35.995 35.405L424 233V365c0 19.882-16.118 36-36 36z m259.99 361.092c64.499 23.475 136.622-12.022 161.1-79.273l12.222-33.583a8 8 0 0 0-7.517-10.736h-460a8 8 0 0 0-2.736 15.518z"  horiz-adv-x="1024" />

    
    <glyph glyph-name="liebianquan_mian" unicode="&#59626;" d="M896 642.688A511.36 511.36 0 0 0 605.610667 477.866667a106.666667 106.666667 0 0 1-187.221334 0A511.36 511.36 0 0 0 128 642.688V768a42.666667 42.666667 0 0 0 42.666667 42.666667h682.666666a42.666667 42.666667 0 0 0 42.666667-42.666667v-125.312z m0-118.912V0a42.666667 42.666667 0 0 0-42.666667-42.666667H170.666667a42.666667 42.666667 0 0 0-42.666667 42.666667V523.776A594.944 594.944 0 0 1 410.88 392.533333a106.709333 106.709333 0 0 1 202.24 0A594.944 594.944 0 0 1 896 523.776z"  horiz-adv-x="1024" />

    
    <glyph glyph-name="hezuohuobanquan_mian" unicode="&#59625;" d="M469.333333 0a64 64 0 0 1-128 0H128a42.666667 42.666667 0 0 0-42.666667 42.666667V725.333333a42.666667 42.666667 0 0 0 42.666667 42.666667h213.333333a64 64 0 0 1 128 0h426.666667a42.666667 42.666667 0 0 0 42.666667-42.666667v-234.666666a106.666667 106.666667 0 1 1 0-213.333334V42.666667a42.666667 42.666667 0 0 0-42.666667-42.666667H469.333333zM405.333333 448a64 64 0 1 1 0 128 64 64 0 0 1 0-128z m0-256a64 64 0 1 1 0 128 64 64 0 0 1 0-128z"  horiz-adv-x="1024" />

    
    <glyph glyph-name="shangcheng1" unicode="&#59624;" d="M896.938 682.86H129.13L59.336 474.394c0-64.266 50.778-116.353 113.424-116.353 62.653 0 113.424 52.087 113.424 116.353 0-64.266 50.778-116.353 113.425-116.353 62.638 0 113.429 52.087 113.429 116.353 0-64.266 50.778-116.353 113.424-116.353 62.64 0 113.429 52.087 113.429 116.353 0-64.266 50.772-116.353 113.424-116.353 62.647 0 113.425 52.087 113.425 116.353L896.939 682.86z m-691.021 36.45h614.239c23.132 0 41.882 15.721 41.882 35.138 0 19.417-18.75 35.158-41.882 35.158H205.917c-23.123 0-41.879-15.743-41.879-35.158 0-19.419 18.756-35.138 41.879-35.138z m533.969-366.905c-30.772-29.612-70.841-45.854-113.425-45.854-42.589 0-82.656 16.242-113.427 45.856-30.773-29.612-70.842-45.856-113.426-45.856-42.587 0-82.653 16.242-113.424 45.852-30.769-29.609-70.835-45.852-113.425-45.852-2.921 0-5.828 0.081-8.722 0.234v-256.578c0-42.759 37.581-70.285 69.794-70.285h558.401c42.025 0 69.805 31.904 69.805 70.285V306.784c-2.896-0.151-5.802-0.234-8.723-0.234-42.59 0-82.657 16.241-113.428 45.855z"  horiz-adv-x="1024" />

    
    <glyph glyph-name="erweima1" unicode="&#59620;" d="M471.28 343.28V-64H64V343.28h407.28z m203.632-285.104V-64h-122.192v122.176h122.192zM756.352-64v81.44h81.472v122.192H960V-64H756.368zM389.84 261.824H145.44V17.44h244.368V261.824z m366.544-40.736v-162.912h-81.456V221.088h81.44z m-448-40.72v-81.456h-81.456v81.44h81.44z m366.544 162.912v-122.192h-122.192v122.192h122.192z m285.088 0v-122.192h-122.176v122.192H960zM471.28 832v-407.28H64V832h407.28zM960 832v-407.28H552.72V832H960zM389.824 750.56H145.44v-244.384h244.368V750.56z m488.72 0H634.176v-244.384H878.56V750.56z m-570.176-81.472v-81.44h-81.456v81.44h81.44z m488.72 0v-81.44h-81.44v81.44h81.44z"  horiz-adv-x="1024" />

    
    <glyph glyph-name="tiaoma" unicode="&#59621;" d="M392.528-64H422.4V832h-29.872v-896z m59.744 0h29.856V832h-29.856v-896zM243.2-64h89.6V832h-89.6v-896zM64-64h119.472V832H64v-896z m448 0h89.6V832H512v-896zM840.528 832v-896H960V832h-119.472z m-89.6-896h59.744V832h-59.744v-896z m-119.456 0H691.2V832h-59.728v-896z"  horiz-adv-x="1024" />

    
    <glyph glyph-name="shangpin3" unicode="&#59622;" d="M868.176 832H155.76A91.84 91.84 0 0 1 64 740.24v-712.544a91.84 91.84 0 0 1 91.76-91.76h712.48A91.84 91.84 0 0 1 960 27.696V740.304A91.872 91.872 0 0 1 868.176 832z m-81.12-254.608l-1.92-1.008-0.24-2.144c-19.52-134.784-136.88-236.464-272.928-236.464S258.576 439.456 239.04 574.24l-0.32 2.144-1.888 1.008c-13.52 8.032-21.6 21.616-21.6 36.528a42.88 42.88 0 0 0 85.744 0c0-12.448-5.632-24.064-15.936-32.608l-2.016-1.568 0.448-2.528a230.4 230.4 0 0 1 228.496-195.072c114.384 0 210.496 82.08 228.496 195.072l0.448 2.464-1.952 1.568c-10.368 8.608-15.936 20.16-15.936 32.608a42.88 42.88 0 0 0 85.76 0c-0.064-14.848-8.16-28.432-21.744-36.464z"  horiz-adv-x="1024" />

    
    <glyph glyph-name="wenzi2" unicode="&#59623;" d="M808.528 834.128a149.328 149.328 0 0 0 149.344-149.328v-597.328a149.328 149.328 0 0 0-149.344-149.344H211.2a149.328 149.328 0 0 0-149.328 149.344V684.8A149.328 149.328 0 0 0 211.2 834.128h597.328zM378.912 103.456a13.712 13.712 0 0 1-13.728-13.712v-12.048a13.712 13.712 0 0 1 14.4-13.712c34.048 1.68 58.192 2.784 72.432 3.312 24.256 0.896 44.128 1.344 59.6 1.344 21.44 0 61.312-1.344 119.648-4.032l19.312-0.768a13.712 13.712 0 0 1 13.712 13.712v12.192a13.712 13.712 0 0 1-13.712 13.712h-1.92c-17.248 0-30.64 1.632-40.16 4.912-9.52 3.264-16.528 8.64-20.992 16.064-3.856 7.744-6.688 19.504-8.48 35.28-1.776 15.76-2.672 43.296-2.672 82.576v83.488c0 40.864 0.16 94.592 2.048 288.24a13.712 13.712 0 0 0 13.728 13.552h65.024c45.536 0 76.048-6.336 91.52-18.976 9.28-7.584 18.496-28.112 27.696-61.616 1.84-6.72 8.448-10.992 15.328-9.92l14.816 2.304a13.712 13.712 0 0 1 11.52 15.216c-3.6 29.28-5.952 51.152-7.088 65.616-1.904 24-2.864 48.048-2.896 72.096a10.8 10.8 0 0 1-13.2 10.544c-12.256-2.8-23.696-4.592-34.352-5.408-21.568-1.632-59.744-2.448-114.512-2.448h-267.84c-48.816 0-83.488 0.816-104.032 2.448a270 270 0 0 0-32.352 4.8 13.712 13.712 0 0 1-16.432-12.512c-1.84-27.36-3.808-48.592-5.904-63.712-2.176-15.808-6.528-39.568-13.072-71.264-1.52-7.376 3.2-14.608 10.592-16.176l16.32-3.472a13.712 13.712 0 0 1 15.92 9.248c11.024 34.512 21.712 55.712 32.08 63.584 17.264 13.088 49.248 19.632 95.984 19.632h63.072c7.568 0 13.712-6.128 13.712-13.712v-241.632c0-86.912-0.592-146.432-1.792-178.56-1.184-32.16-3.28-52.4-6.24-60.736-4.48-11.008-11.312-18.672-20.544-22.992-9.232-4.32-23.808-6.464-43.744-6.464h-2.8z"  horiz-adv-x="1024" />

    
    <glyph glyph-name="swap-box-fill1" unicode="&#59619;" d="M128 768h768a42.666667 42.666667 0 0 0 42.666667-42.666667v-682.666666a42.666667 42.666667 0 0 0-42.666667-42.666667H128a42.666667 42.666667 0 0 0-42.666667 42.666667V725.333333a42.666667 42.666667 0 0 0 42.666667 42.666667z m512-170.666667v-85.333333h-170.666667v-85.333333h170.666667v-85.333334l149.333333 128L640 597.333333zM384 170.666667v85.333333h170.666667v85.333333H384v85.333334l-149.333333-128L384 170.666667z"  horiz-adv-x="1024" />

    
    <glyph glyph-name="store-3-fill" unicode="&#59618;" d="M896 341.333333v-298.666666a42.666667 42.666667 0 0 0-42.666667-42.666667H170.666667a42.666667 42.666667 0 0 0-42.666667 42.666667v298.666666H85.333333v85.333334l42.666667 213.333333h768l42.666667-213.333333v-85.333334h-42.666667zM213.333333 341.333333v-256h597.333334v256H213.333333z m42.666667-42.666666h341.333333v-128H256v128zM128 768h768v-85.333333H128V768z"  horiz-adv-x="1024" />

    
    <glyph glyph-name="faren" unicode="&#59617;" d="M906.52672 723.07541333H122.63424c-29.24544 1.72032-53.90336-20.64384-55.62368001-49.88928v-565.98528c0-28.09856 22.36416-51.6096 50.46272001-52.18303999h787.90656001c28.672 0 51.6096 23.51104 51.6096 52.18303999V670.89237333c0 28.672-22.36416 51.6096-50.46272001 52.18304zM230.44096 503.44789333c5.16096 41.86112 39.56736 76.26751999 81.42848001 81.42848 61.93152 8.02816 114.11456-44.15488 106.08639998-106.0864-5.16096-41.86112-39.56736-76.26751999-81.42847999-81.42848-61.93152-8.02816-114.11456 44.15488-106.0864 106.0864z m244.28543999-307.93728H175.96416c-8.02816 0-14.33599999 6.88128-14.336 14.90944 4.58752 99.77856 99.77856 178.33984 208.15872 149.66784 67.66592-17.77664 115.26144-79.13472 118.12864-149.66784v-0.57343999c0.57344-8.02816-5.7344-14.33599999-13.18912001-14.33600001z m341.19680001 6.88127999h-219.05408c-19.49695999 0-35.55328 16.05632-35.55328 35.55328001 0 19.49695999 16.05632 35.55328 35.55328 35.55328H815.9232c19.49695999 0 35.55328-16.05632 35.55327999-35.55328 0-19.49695999-16.05632-35.55328-35.55327999-35.55328001z m0 139.34592h-219.05408c-19.49695999 0-35.55328 16.05632-35.55328 35.55328001s16.05632 35.55328 35.55328 35.55328H815.9232c19.49695999 0 35.55328-16.05632 35.55327999-35.55328s-16.05632-35.55328-35.55327999-35.55328001z m0 139.91936001h-219.05408c-19.49695999 0-35.55328 16.05632-35.55328 35.55327999s16.05632 35.55328 35.55328 35.55328001H815.9232c19.49695999 0 35.55328-16.05632 35.55327999-35.55328001s-16.05632-35.55328-35.55327999-35.55327999z"  horiz-adv-x="1024" />

    
    <glyph glyph-name="jinjianshenhe" unicode="&#59616;" d="M321.0911 696.92730001h346.2291c10.584 0 19.1835 8.5995 19.1835 19.1835v38.4993c0 10.584-8.5995 19.1835-19.1835 19.1835h-96.1821c0 42.4683-34.398 76.9986-76.9986 76.9986-42.4683 0-76.9986-34.398-76.9986-76.9986h-96.1821c-10.584 0-19.1835-8.5995-19.1835-19.1835v-38.4993c0.1323-10.4517 8.7318-19.1835 19.3158-19.1835zM317.519 165.47820001000002h184.9554c8.3349 35.1918 23.5494 46.7019 48.1572 51.4647 31.2228 5.9535 81.4968 1.5876 93.2715 12.7008 8.2026 7.6734 9.1287 20.3742 7.2765 36.2502H322.4141c-18.9189 0-34.2657 15.4791-34.2657 34.2657 0 18.9189 15.4791 34.2657 34.2657 34.2657h315.5355c-1.5876 10.1871-2.646 20.5065-2.646 30.5613-0.1323 36.1179 21.6972 69.7221 21.6972 69.7221 23.0202 34.2657 61.6518 54.9045 102.9294 54.9045 37.3086 0 70.5159-16.2729 92.8746-19.9773V707.37900001c-0.1323 7.938-24.3432 32.1489-54.243 32.1489h-65.8854v-33.6042c0-27.6507-14.0238-48.8187-46.8342-50.0094H302.966c-31.8843 1.9845-45.2466 26.5923-45.2466 52.2585v31.4874h-82.5552c-29.8998-0.1323-54.1107-24.3432-54.243-54.243v-691.0029c0.1323-29.8998 24.3432-54.1107 54.243-54.243h362.1051c-46.0404 0-35.5887 60.5934-35.5887 107.9568v49.4802H317.519c-18.522-0.1323-33.7365 14.6853-33.8688 33.2073v0.6615c0 19.0512 14.9499 34.0011 33.8688 34.0011z m-25.0047 300.5856c0 18.9189 13.0977 34.2657 29.2383 34.2657h153.8649c16.0083 0 29.2383-15.4791 29.2383-34.2657 0-18.9189-13.0977-34.2657-29.2383-34.2657H321.7526c-16.1406 0-29.2383 15.4791-29.2383 34.2657zM945.944 156.34950001000004h-64.4301c-16.9344 0-31.8843 10.8486-36.6471 27.1215-6.0858 18.9189-10.1871 45.3789-10.1871 75.1464 0 16.9344 11.2455 79.9092 11.2455 101.6064v3.4398c-1.9845 38.6316-33.2073 69.0606-72.5004 69.0606-39.2931 0-70.3836-30.429-72.5004-69.0606 0-1.323-0.6615-2.7783-0.6615-3.4398 0-23.6817 17.0667-86.6565 17.0667-102.2679 0-29.7675-3.4398-56.2275-10.1871-75.2787-4.7628-16.1406-15.3468-27.2538-32.1489-27.1215H612.548c-22.7556-0.1323-41.2776-18.522-41.2776-41.2776v-89.4348c0-1.4553 0.2646-2.7783 0.6615-3.969v-22.491c0-16.9344 12.8331-31.2228 29.106-31.2228H945.944c16.2729 0 29.106 13.4946 29.106 31.2228V21.403500010000016h-0.5292c0.2646 1.0584 0.5292 2.2491 0.5292 3.3075V125.78820000999997c0 17.5959-12.8331 30.5613-29.106 30.5613z"  horiz-adv-x="1024" />

    
    <glyph glyph-name="Subtract" unicode="&#59615;" d="M1167.2 896c58.336 0 106.112-48 106.112-106.656v-810.688C1273.28-80 1225.536-128 1167.2-128H106.08C47.776-128 0-80 0-21.344V789.344C0 848 47.744 896 106.112 896h1061.088zM424.416 597.344c0 70.656-57.024 128-127.328 128s-127.328-57.344-127.328-128c0-70.688 57.024-128 127.36-128 70.272 0 127.296 57.312 127.296 128z m679.104-256l-275.872 277.312-339.552-341.312L381.984 384l-212.224-213.344v-128h933.76v298.688z"  horiz-adv-x="1280" />

    
    <glyph glyph-name="jianjiemokuai" unicode="&#59534;" d="M1381.39772689 115.53409076000003H192.47727309v38.35227311h1188.9204538v-38.35227312zM456.68607961-37.875H192.47727309v38.3522731h264.20880652v-38.3522731z m594.4602269 0H522.69034074v38.3522731H1051.18465923v-38.3522731zM1381.39772689-37.875h-264.20880652v38.3522731H1381.39772689v-38.3522731zM1112.93181847 479.88068152h-191.76136386v38.3522731h191.76136386v-38.3522731zM1343.04545461 479.88068152h-191.76136387v38.3522731h191.76136387v-38.3522731zM441.76704537 748.34659076a230.11363613 230.11363613 0 1 1 0-460.22727228 230.11363613 230.11363613 0 0 1 0 460.22727227z m-268.46590925-230.11363614a268.46590924 268.46590924 0 1 0 536.93181849 0 268.46590924 268.46590924 0 0 0-536.93181849 0zM441.76704537 441.52840924c-63.3196019 0-121.078125-40.23153425-155.7102269-104.93181849l-33.78835273 18.10227312C291.80965924 428.6803981 360.99715924 479.88068152 441.72869347 479.88068152c80.76988613 0 149.95738613-51.20028424 189.49857962-125.18181765l-33.78835272-18.10227312C562.80681847 401.3352269 505.04829537 441.52840924 441.72869347 441.52840924zM441.76704537 633.2897731a38.3522731 38.3522731 0 1 1 0-76.7045462 38.3522731 38.3522731 0 0 1 0 76.7045462z m-76.70454538-38.3522731a76.70454538 76.70454538 0 1 0 153.40909075 0 76.70454538 76.70454538 0 0 0-153.40909075 0z"  horiz-adv-x="1489" />

    
    <glyph glyph-name="lunbotu" unicode="&#59535;" d="M1100.08512899 805.875H342.86314662C303.5269399 805.875 270.50431008 774.51077563 270.50431008 734.4471979v-613.60991344C270.50431008 80.77370672999996 303.5269399 49.40948235999997 342.86314662 49.40948235999997h757.22198237C1139.42133653 49.40948235999997 1172.44396553 80.77370672999996 1172.44396553 120.80818991000001V734.47629327C1172.44396553 774.51077563 1139.42133653 805.875 1100.08512899 805.875zM342.86314662 776.78017227h757.22198237C1123.97198235 776.78017227 1143.34913781 757.83943991 1143.34913781 734.4471979v-613.60991344C1143.34913781 97.41594789999999 1123.97198235 78.50431008999999 1100.08512899 78.50431008999999H342.86314662C318.97629326 78.50431008999999 299.59913781 97.44504327000004 299.59913781 120.80818991000001V734.47629327C299.59913781 757.86853446 318.97629326 776.78017227 342.86314662 776.78017227zM488.71551763-8.78017226999998a14.54741346 14.54741346 0 0 1-1e-8-29.09482773h116.3793101a14.54741346 14.54741346 0 0 1 0 29.09482773h-116.37931009zM721.47413781 296.71551764000003c-158.18857773 0-298.1346979-89.20474118-380.29849119-225.71767311l-24.93426763 15.0129311c86.70258654 144.07758654 235.55172437 239.79956891 405.26185336 239.79956891 169.68103446 0 318.50107773-95.72198237 405.23275882-239.79956891l-24.93426681-15.01293109c-82.16379328 136.5129311-222.10991346 225.71767227-380.29849201 225.71767309zM474.16810336 398.54741346a29.09482773 29.09482773 0 1 0-58.18965547 0 29.09482773 29.09482773 0 0 0 58.18965547 0zM663.28448235-8.78017226999998a14.54741346 14.54741346 0 0 1 1e-8-29.09482773h87.28448317a14.54741346 14.54741346 0 0 1 0 29.09482773h-87.28448317z m145.47413864 0a14.54741346 14.54741346 0 0 1 0-29.09482773h116.3793101a14.54741346 14.54741346 0 0 1 0 29.09482773h-116.3793101zM154.12499999 282.16810337000004V602.21120673h29.09482773v-320.04310336H154.12499999zM1259.72844789 282.16810337000004V602.21120673h29.09482773v-320.04310336h-29.09482773z"  horiz-adv-x="1377" />

    
    <glyph glyph-name="chengyuanmokuai-01" unicode="&#59536;" d="M1301.09765649 779.5078125a65.9179685 65.9179685 0 0 0 65.9179685-65.9179685v-659.179688a65.9179685 65.9179685 0 0 0-65.9179685-65.9179685H246.41015599a65.9179685 65.9179685 0 0 0-65.9179685 65.9179685V713.589844a65.9179685 65.9179685 0 0 0 65.9179685 65.9179685h1054.6875005z m0-32.95898463H246.41015599a32.95898463 32.95898463 0 0 1-32.95898387-32.95898387v-659.179688a32.95898463 32.95898463 0 0 1 32.95898387-32.95898387h1054.6875005a32.95898463 32.95898463 0 0 1 32.95898387 32.95898387V713.589844a32.95898463 32.95898463 0 0 1-32.95898387 32.95898387zM575.99999999 416.95898463H345.28710911v32.95898387h230.71289088v-32.95898387zM510.08203149 334.56152345H345.28710911v32.95898462h164.79492238v-32.95898462zM905.58984399 499.35644506a115.35644506 115.35644506 0 1 0-115.35644582-115.35644506A115.35644506 115.35644506 0 0 0 905.58984399 499.35644506z m0-32.95898387a82.39746119 82.39746119 0 1 1 82.39746043-82.39746119A82.39746119 82.39746119 0 0 1 905.58984399 466.39746119zM1039.40332005 480.24023463a115.35644506 115.35644506 0 1 0 0-192.48046926l18.45703176 27.68554688a79.76074193 79.76074193 0 0 1 45.48339843-13.84277344 82.39746119 82.39746119 0 0 1 0 164.79492238 79.76074193 79.76074193 0 0 1-45.48339843-13.84277344z"  horiz-adv-x="1536" />

    
    <glyph glyph-name="caidandaohang" unicode="&#59537;" d="M416.21874964 779.5078125c121.33300764 0 219.72656215-100.19531275 219.72656293-223.68164028 0-123.61816372-98.39355452-223.76953107-219.72656293-223.76953185S196.49218749 432.25195313 196.49218749 555.82617222C196.49218749 679.35644513 294.885742 779.5078125 416.21874964 779.5078125z m0-55.94238316c-91.01074227 0-164.79492162-75.14648438-164.79492161-167.78320252C251.42382803 463.1015625 325.20800815 387.99902352 416.21874964 387.99902352c91.01074227 0 164.79492162 75.14648438 164.7949224 167.7832033 0 92.68066432-73.78417934 167.78320329-164.7949224 167.78320252zM581.01367203 164.27343785000005h-329.589844v55.94238238h329.58984401zM581.01367203 20.440429519999952h-329.589844V76.38281268000003h329.58984401zM1152.30273411 20.440429519999952h-329.58984324V76.38281268000003h329.58984324zM1723.59179695 20.440429519999952h-329.58984401V76.38281268000003h329.58984401zM987.50781249 779.5078125c121.33300764 0 219.72656215-100.19531275 219.72656215-223.68164028 0-123.61816372-98.39355452-223.76953107-219.72656215-223.76953185s-219.72656215 100.19531275-219.72656216 223.72558645C767.78125033 679.35644513 866.17480485 779.5078125 987.50781249 779.5078125z m0-55.94238316c-91.01074227 0-164.79492162-75.14648438-164.79492162-167.78320252 0-92.68066432 73.78417934-167.78320329 164.79492162-167.7832033 91.01074227 0 164.79492162 75.14648438 164.79492162 167.7832033 0 92.68066432-73.78417934 167.78320329-164.79492162 167.78320252zM1152.30273411 164.27343785000005h-329.58984324v55.94238238h329.58984324zM1558.79687533 779.5078125c121.33300764 0 219.72656215-100.19531275 219.72656216-223.68164028 0-123.61816372-98.39355452-223.76953107-219.72656216-223.76953185s-219.72656215 100.19531275-219.72656293 223.72558645C1339.0703124 679.35644513 1437.46386692 779.5078125 1558.79687533 779.5078125z m0-55.94238316c-91.01074227 0-164.79492162-75.14648438-164.7949224-167.78320252 0-92.68066432 73.78417934-167.78320329 164.7949224-167.7832033 91.01074227 0 164.79492162 75.14648438 164.79492162 167.7832033 0 92.68066432-73.78417934 167.78320329-164.79492162 167.78320252zM1723.59179695 164.27343785000005h-329.58984401v55.94238238h329.58984401z"  horiz-adv-x="2048" />

    
    <glyph glyph-name="tuwen2" unicode="&#59538;" d="M510.72135408 515.8359377500001v-41.01562553h120.8496098v-251.8359373h60.43945299V474.82031222h120.84960902V515.8359377500001zM1096.65885445 779.5078125a58.59375011 58.59375011 0 0 0 58.59374934-58.59375011v-673.82812477a58.59375011 58.59375011 0 0 0-58.59374934-58.59375012H217.75260427a58.59375011 58.59375011 0 0 0-58.59375011 58.59375012V720.91406239a58.59375011 58.59375011 0 0 0 58.59375012 58.59375011z m0-29.29687505H217.75260427a29.29687505 29.29687505 0 0 1-29.29687505-29.29687506v-673.82812477a29.29687505 29.29687505 0 0 1 29.29687506-29.29687506h878.90625016a29.29687505 29.29687505 0 0 1 29.29687507 29.29687506V720.91406239a29.29687505 29.29687505 0 0 1-29.29687507 29.29687505z"  horiz-adv-x="1289" />

    
    <glyph glyph-name="datukapian" unicode="&#59539;" d="M1080.95953531 125.39873780999994H137.82552083v30.42367836h943.13401448v-30.42367836z m-220.05446207-121.69471113H137.82552083v30.42367759h723.07955241v-30.42367759zM1020.11217937 779.5078125a60.84735594 60.84735594 0 0 0 60.84735594-60.84735594v-395.5078125a60.84735594 60.84735594 0 0 0-60.84735594-60.84735595H198.67287677a60.84735594 60.84735594 0 0 0-60.84735594 60.84735595V718.6604565600001a60.84735594 60.84735594 0 0 0 60.84735594 60.84735594z m0-30.42367758H198.67287677a30.42367758 30.42367758 0 0 1-30.42367836-30.42367836v-395.5078125a30.42367758 30.42367758 0 0 1 30.42367836-30.42367759h821.43930259a30.42367758 30.42367758 0 0 1 30.42367836 30.42367759V718.6604565600001a30.42367758 30.42367758 0 0 1-30.42367836 30.42367836zM609.39252769 438.85389158c-176.00097656 0-329.45800781-71.06971189-418.20387615-176.54860347L168.24919841 287.55694093C264.2359025 401.64573323 426.69834228 475.27103354 609.39252769 475.27103354c182.69418539 0 345.15662595-73.62530031 441.14333003-187.71409261l-22.93945313-25.25165283c-88.74586833 105.47889158-242.20289958 176.5486027-418.20387691 176.54860348zM381.21494385 566.54206707a30.42367758 30.42367758 0 1 0-60.84735595 0 30.42367758 30.42367758 0 0 0 60.84735595 0z"  horiz-adv-x="1220" />

    
    <glyph glyph-name="erjidaohang" unicode="&#59540;" d="M248.32812525 410.36718725a52.73437525 52.73437525 0 1 0 0-105.46874975H169.22656275a52.73437525 52.73437525 0 1 0 0 105.46874975z m0-26.36718725H169.22656275a26.36718725 26.36718725 0 1 1 0-52.73437525h79.1015625a26.36718725 26.36718725 0 1 1 0 52.73437525zM248.32812525 252.16406225000003a52.73437525 52.73437525 0 1 0 0-105.46874975H169.22656275a52.73437525 52.73437525 0 1 0 0 105.46874975z m0-26.36718725H169.22656275a26.36718725 26.36718725 0 1 1 0-52.73437525h79.1015625a26.36718725 26.36718725 0 1 1 0 52.73437525zM248.32812525 93.96093725000003a52.73437525 52.73437525 0 1 0 0-105.46874975H169.22656275a52.73437525 52.73437525 0 1 0 0 105.46874975z m0-26.36718726H169.22656275a26.36718725 26.36718725 0 1 1 0-52.73437524h79.1015625a26.36718725 26.36718725 0 1 1 0 52.73437524zM881.14062525 779.5078125c29.13574193 0 52.73437525-23.519531 52.7343745-52.65527369v-685.70507762A52.65527369 52.65527369 0 0 0 881.14062525-11.5078125H454.65136719a52.73437525 52.73437525 0 0 0-52.73437526 52.73437525V434.44042994a52.73437525 52.73437525 0 0 1-52.73437449 52.73437449H169.22656275a52.73437525 52.73437525 0 0 0-52.73437525 52.73437526V726.77343725a52.73437525 52.73437525 0 0 0 52.73437525 52.73437525h711.9140625z m0-26.36718725H169.22656275a26.36718725 26.36718725 0 0 1-26.367188-26.367188v-186.86425756a26.36718725 26.36718725 0 0 1 26.367188-26.36718725h179.95605469a79.1015625 79.1015625 0 0 0 79.1015625-79.1015625V41.22656274999997a26.36718725 26.36718725 0 0 1 26.36718725-26.367188H881.14062525c14.63378906 0 26.36718725 11.78613281 26.36718725 26.28808644V726.8525388099999A26.28808567 26.28808567 0 0 1 881.14062525 753.14062525z"  horiz-adv-x="1058" />

    
    <glyph glyph-name="hunhedaohang" unicode="&#59541;" d="M392.95214844 779.5078125a60.84735594 60.84735594 0 0 0 60.84735594-60.84735594v-106.48287272a60.84735594 60.84735594 0 0 1 60.84735595-60.84735517H968.35516844a60.84735594 60.84735594 0 0 0 60.84735595-60.84735596V49.33954344000006c0-33.61816406-27.13792073-60.84735594-60.75608479-60.84735594H177.2482723A60.7560848 60.7560848 0 0 0 116.4921875 49.33954344000006V718.6604565600001a60.84735594 60.84735594 0 0 0 60.84735594 60.84735594z m0-30.42367758H177.33954344a30.42367758 30.42367758 0 0 1-30.42367836-30.42367836v-669.32091312c0-16.88514158 13.59938395-30.42367758 30.33240722-30.42367836h791.19816731c16.73302248 0 30.3324072 13.53853677 30.33240643 30.42367836V490.48287272a30.42367758 30.42367758 0 0 1-30.4236776 30.42367759H514.64686033a91.27103354 91.27103354 0 0 0-91.27103431 91.27103352V718.6604565600001a30.42367758 30.42367758 0 0 1-30.42367758 30.42367836zM679.33022867 764.29597332a60.84735594 60.84735594 0 1 0-1e-8-121.69471113h-91.2710343a60.84735594 60.84735594 0 1 0-1e-8 121.69471113z m-1e-8-30.42367759h-91.2710343a30.42367758 30.42367758 0 1 1-1e-8-60.84735595h91.27103431a30.42367758 30.42367758 0 1 1 0 60.84735595zM953.14332927 764.29597332a60.84735594 60.84735594 0 1 0 0-121.69471113h-91.27103354a60.84735594 60.84735594 0 1 0 0 121.69471113z m0-30.42367759h-91.27103354a30.42367758 30.42367758 0 1 1 0-60.84735595h91.27103354a30.42367758 30.42367758 0 1 1 0 60.84735595z"  horiz-adv-x="1181" />

    
    </font>
</defs>
</svg>
